<?xml version="1.0" encoding="utf-8"?>
<!-- Generator: Adobe Illustrator 16.0.0, SVG Export Plug-In . SVG Version: 6.00 Build 0)  -->
<!DOCTYPE svg PUBLIC "-//W3C//DTD SVG 1.1//EN" "http://www.w3.org/Graphics/SVG/1.1/DTD/svg11.dtd">
<svg version="1.1" id="Layer_1" xmlns="http://www.w3.org/2000/svg" xmlns:xlink="http://www.w3.org/1999/xlink" x="0px" y="0px"
	 width="363.732px" height="133.421px" viewBox="-20.877 0.263 363.732 133.421"
	 enable-background="new -20.877 0.263 363.732 133.421" xml:space="preserve">
<path d="M36.356,78.133c0,1.802-0.701,6.706-4.705,11.01c-7.006,7.508-17.816,7.808-25.423,0.701
	c-7.607-7.006-8.107-18.017-1.401-25.323c3.604-3.903,7.707-5.204,10.009-5.505l1.802,3.403c-1.702,0.2-5.806,1.2-8.908,4.604
	C2.425,72.729,3.126,81.236,9.131,86.74c6.005,5.506,14.313,5.705,19.818-0.3c3.603-3.903,3.903-8.308,4.003-9.909L36.356,78.133z"
	/>
<path d="M36.456,37.396c8.408-5.905,19.217-3.703,25.022,4.604c5.905,8.407,4.104,19.318-4.204,25.123s-19.017,3.903-25.023-4.604
	C26.347,54.111,28.148,43.201,36.456,37.396z M55.173,64.02c6.306-4.403,7.707-12.812,2.903-19.617
	c-4.705-6.706-13.112-8.408-19.417-3.903c-6.306,4.504-7.607,12.911-2.903,19.618C40.459,66.923,48.767,68.424,55.173,64.02z"/>
<path d="M64.281,21.381l8.107-3.603c6.506-2.903,11.41-1.101,13.913,4.504c1.701,3.804,1.301,8.107-1.902,10.91l14.413,11.21
	l-4.104,1.802l-13.312-10.71l-5.405,2.402l6.105,13.913l-3.703,1.601L64.281,21.381z M78.995,32.692
	c3.803-1.602,5.305-4.404,3.503-8.608c-1.501-3.403-4.304-4.804-8.808-2.903l-4.204,1.802l5.104,11.61L78.995,32.692z"/>
<path d="M107.22,30.189L105.819,42.2l-4.003,1.001l4.404-37.134l4.003-1l21.019,30.928l-4.003,1.001l-6.806-10.009L107.22,30.189z
	 M109.322,9.871l-1.701,16.615l10.91-2.703L109.322,9.871z"/>
<path d="M134.945,0.663l4.003-0.3l2.402,31.329l13.112-1.001l0.3,3.603l-17.116,1.301L134.945,0.663z"/>
<path d="M188.193,5.367l-9.309-1.501l0.501-3.604l22.62,3.604l-0.601,3.703l-9.308-1.501l-4.905,30.928l-4.003-0.601L188.193,5.367z
	"/>
<path d="M214.518,6.968l8.508,2.803c6.806,2.202,9.208,6.806,7.307,12.611c-1.302,3.904-4.404,6.906-8.708,6.906l3.303,18.017
	l-4.304-1.401l-2.803-16.916l-5.705-1.802L207.411,41.6l-3.903-1.301L214.518,6.968z M217.92,25.185
	c3.904,1.301,6.906,0.3,8.309-4.104c1.101-3.503,0.1-6.506-4.604-8.007l-4.404-1.401l-3.903,12.011L217.92,25.185z"/>
<path d="M262.16,26.186c8.908,5.004,11.711,15.714,6.707,24.622c-5.105,9.009-15.615,12.011-24.523,7.007
	c-8.807-5.004-11.71-15.514-6.605-24.522C242.743,24.184,253.353,21.181,262.16,26.186z M246.246,54.512
	c6.807,3.803,14.914,1.4,18.917-5.806c4.004-7.106,1.901-15.414-4.904-19.217c-6.806-3.803-14.913-1.301-18.917,5.805
	C237.238,42.5,239.439,50.708,246.246,54.512z"/>
<path d="M273.971,61.117l14.914-16.815l3.003,2.703L276.975,63.72c-3.904,4.304-4.004,9.208,0.4,13.112
	c4.403,3.903,9.207,3.203,13.111-1.102L305.3,59.016l3.003,2.703l-14.914,16.715c-5.205,5.904-12.411,6.705-18.617,1.201
	C268.666,74.029,268.666,67.023,273.971,61.117z"/>
<path d="M319.913,80.635l-5.806-7.406l2.902-2.303l14.213,18.018l-2.902,2.301l-5.805-7.406l-24.623,19.418l-2.502-3.203
	L319.913,80.635z"/>
</svg>
