<svg xmlns="http://www.w3.org/2000/svg" width="331" height="103" viewBox="0 0 330.7 102.8"><style>.a{fill:#010101;}</style><path d="M36.2 77.8c0 1.8-0.7 6.7-4.7 11 -7 7.5-17.8 7.8-25.4 0.7 -7.6-7-8.1-18-1.4-25.3 3.6-3.9 7.7-5.2 10-5.5l1.8 3.4c-1.7 0.2-5.8 1.2-8.9 4.6 -5.3 5.7-4.6 14.2 1.4 19.7 6 5.5 14.3 5.7 19.8-0.3 3.6-3.9 3.9-8.3 4-9.9L36.2 77.8z" class="a"/><path d="M36.3 37.1c8.4-5.9 19.2-3.7 25 4.6 5.9 8.4 4.1 19.3-4.2 25.1 -8.3 5.8-19 3.9-25-4.6C26.2 53.8 28 42.9 36.3 37.1zM55 63.7c6.3-4.4 7.7-12.8 2.9-19.6 -4.7-6.7-13.1-8.4-19.4-3.9 -6.3 4.5-7.6 12.9-2.9 19.6C40.3 66.6 48.6 68.1 55 63.7z" class="a"/><path d="M64.1 21.1l8.1-3.6c6.5-2.9 11.4-1.1 13.9 4.5 1.7 3.8 1.3 8.1-1.9 10.9l14.4 11.2 -4.1 1.8L81.2 35.2l-5.4 2.4 6.1 13.9 -3.7 1.6L64.1 21.1zM78.8 32.4c3.8-1.6 5.3-4.4 3.5-8.6 -1.5-3.4-4.3-4.8-8.8-2.9l-4.2 1.8 5.1 11.6L78.8 32.4z" class="a"/><path d="M107 29.9l-1.4 12 -4 1 4.4-37.1 4-1 21 30.9 -4 1 -6.8-10L107 29.9zM109.1 9.6l-1.7 16.6 10.9-2.7L109.1 9.6z" class="a"/><path d="M134.7 0.4l4-0.3 2.4 31.3 13.1-1 0.3 3.6 -17.1 1.3L134.7 0.4z" class="a"/><path d="M187.9 5.1l-9.3-1.5L179.1 0l22.6 3.6 -0.6 3.7 -9.3-1.5 -4.9 30.9 -4-0.6L187.9 5.1z" class="a"/><path d="M214.2 6.7l8.5 2.8c6.8 2.2 9.2 6.8 7.3 12.6 -1.3 3.9-4.4 6.9-8.7 6.9l3.3 18 -4.3-1.4 -2.8-16.9 -5.7-1.8 -4.7 14.4 -3.9-1.3L214.2 6.7zM217.6 24.9c3.9 1.3 6.9 0.3 8.3-4.1 1.1-3.5 0.1-6.5-4.6-8l-4.4-1.4 -3.9 12L217.6 24.9z" class="a"/><path d="M261.8 25.9c8.9 5 11.7 15.7 6.7 24.6 -5.1 9-15.6 12-24.5 7 -8.8-5-11.7-15.5-6.6-24.5C242.4 23.9 253 20.9 261.8 25.9zM245.9 54.2c6.8 3.8 14.9 1.4 18.9-5.8 4-7.1 1.9-15.4-4.9-19.2 -6.8-3.8-14.9-1.3-18.9 5.8C236.9 42.2 239.1 50.4 245.9 54.2z" class="a"/><path d="M273.6 60.8L288.5 44l3 2.7 -14.9 16.7c-3.9 4.3-4 9.2 0.4 13.1 4.4 3.9 9.2 3.2 13.1-1.1l14.8-16.7 3 2.7 -14.9 16.7c-5.2 5.9-12.4 6.7-18.6 1.2C268.3 73.7 268.3 66.7 273.6 60.8z" class="a"/><path d="M319.5 80.3l-5.8-7.4 2.9-2.3 14.2 18 -2.9 2.3 -5.8-7.4 -24.6 19.4 -2.5-3.2L319.5 80.3z" class="a"/></svg>
