<svg xmlns="http://www.w3.org/2000/svg" width="331" height="103" viewBox="0 0 330.7 102.8"><style>.a{fill:#010101;}</style><path d="M72.4 26.3l-0.9 3.6c-2.2-0.5-6.1-1.1-10.8 1.7 -6.9 4.1-8.5 12.2-4.3 19.3 4.3 7.3 12.2 9.5 18.9 5.5 5-3 6.6-6.9 7-8.4l-3.7-6.3 -6.7 4 -1.8-3.1 10.1-6 6.4 10.9c-1.3 5.2-4.3 9.1-9.4 12.1 -8.6 5.1-18.9 2.5-24.4-6.6 -5.2-8.8-2.8-19.5 6-24.7C64.7 24.9 69.9 25.6 72.4 26.3z" class="a"/><path d="M85.1 15.9l8.4-3c6.7-2.4 11.5-0.3 13.5 5.5 1.4 3.9 0.7 8.2-2.6 10.8l13.6 12.2 -4.2 1.5 -12.5-11.7 -5.6 2 5.1 14.3 -3.8 1.4L85.1 15.9zM99 28.2c3.9-1.4 5.6-4 4.1-8.4 -1.2-3.5-3.9-5.1-8.6-3.5l-4.3 1.5 4.3 11.9L99 28.2z" class="a"/><path d="M134.6 2c10.1-1.5 18.8 5.3 20.3 15.4 1.5 10.2-5 19.1-15.1 20.5 -10 1.5-18.7-5.1-20.2-15.4C118 12.3 124.5 3.4 134.6 2zM139.3 34.2c7.7-1.1 12.6-8 11.4-16.2 -1.2-8.1-7.9-13.4-15.6-12.2 -7.7 1.1-12.6 8.1-11.4 16.2C124.9 30.1 131.6 35.3 139.3 34.2z" class="a"/><path d="M165.3 22.4L166.8 0l4 0.3 -1.5 22.4c-0.4 5.8 2.4 9.7 8.3 10.1 5.9 0.4 9.3-3.1 9.7-8.9L188.8 1.5l4 0.3 -1.5 22.4c-0.5 7.9-5.6 12.9-13.9 12.3C169 35.9 164.7 30.3 165.3 22.4z" class="a"/><path d="M208 4.6l9.3 2.3c6.2 1.5 9.2 6.2 7.7 12.3 -1.5 6.1-6.7 8.9-12.6 7.4l-5.4-1.3 -3.6 14.2 -3.9-1L208 4.6zM212.9 23.1c4.1 1 7.1-0.9 8.1-4.8 1-3.9-0.8-6.9-4.9-7.9l-5-1.3 -3.2 12.8L212.9 23.1z" class="a"/><path d="M239.1 13.6l15.3 6.4 -1.4 3.4 -11.6-4.8 -4.5 10.8 10.1 4.2 -1.4 3.4 -10.1-4.2 -4.8 11.4 12.1 5 -1.4 3.4 -15.8-6.6L239.1 13.6z" class="a"/><path d="M267.2 26.4l7.6 4.7c6.1 3.7 7.4 8.8 4.2 14 -2.2 3.5-5.9 5.7-10 4.7l-1 18.2 -3.8-2.4 1.2-17.1 -5.1-3.1 -7.9 13 -3.5-2.1L267.2 26.4zM266.3 44.9c3.5 2.1 6.7 1.9 9.1-2.1 1.9-3.2 1.6-6.3-2.7-8.8l-3.9-2.4 -6.6 10.8L266.3 44.9z" class="a"/></svg>
