<?xml version="1.0" encoding="utf-8"?>
<!-- Generator: Adobe Illustrator 16.0.0, SVG Export Plug-In . SVG Version: 6.00 Build 0)  -->
<!DOCTYPE svg PUBLIC "-//W3C//DTD SVG 1.1//EN" "http://www.w3.org/Graphics/SVG/1.1/DTD/svg11.dtd">
<svg version="1.1" id="Layer_1" xmlns="http://www.w3.org/2000/svg" xmlns:xlink="http://www.w3.org/1999/xlink" x="0px" y="0px"
	 width="363.732px" height="133.421px" viewBox="0 0 363.732 133.421" enable-background="new 0 0 363.732 133.421"
	 xml:space="preserve">
<path d="M83.374,26.324l-0.9,3.603c-2.202-0.5-6.105-1.101-10.811,1.702c-6.905,4.104-8.507,12.211-4.304,19.316
	c4.304,7.308,12.211,9.509,18.917,5.505c5.005-3.002,6.606-6.905,7.006-8.407l-3.703-6.306l-6.706,4.004l-1.802-3.103l10.109-6.006
	l6.405,10.91c-1.301,5.204-4.304,9.108-9.408,12.11c-8.608,5.105-18.917,2.503-24.422-6.605c-5.205-8.808-2.803-19.518,6.006-24.723
	C75.667,24.923,80.871,25.624,83.374,26.324z"/>
<path d="M96.085,15.915l8.408-3.003c6.706-2.402,11.51-0.3,13.513,5.505c1.4,3.903,0.7,8.208-2.604,10.81l13.612,12.211
	l-4.204,1.501L112.3,31.229l-5.605,2.002l5.105,14.312l-3.805,1.4L96.085,15.915z M109.998,28.226
	c3.903-1.401,5.605-4.003,4.104-8.408c-1.201-3.503-3.903-5.104-8.607-3.503l-4.304,1.501l4.304,11.911L109.998,28.226z"/>
<path d="M145.631,2.002c10.108-1.501,18.816,5.305,20.317,15.414c1.501,10.209-5.004,19.118-15.114,20.518
	c-10.009,1.502-18.717-5.104-20.218-15.414C129.015,12.311,135.521,3.403,145.631,2.002z M150.334,34.231
	c7.707-1.101,12.611-8.007,11.411-16.214c-1.201-8.107-7.906-13.412-15.613-12.211c-7.707,1.101-12.611,8.107-11.411,16.215
	C135.922,30.127,142.627,35.332,150.334,34.231z"/>
<path d="M176.358,22.42L177.859,0l4.004,0.3l-1.502,22.42c-0.4,5.805,2.402,9.709,8.309,10.11c5.904,0.4,9.309-3.104,9.708-8.909
	l1.502-22.42l4.004,0.3l-1.501,22.42c-0.501,7.907-5.604,12.911-13.913,12.312C180.061,35.932,175.759,30.328,176.358,22.42z"/>
<path d="M219.097,4.604l9.309,2.302c6.206,1.501,9.208,6.206,7.707,12.312c-1.501,6.105-6.706,8.908-12.611,7.407l-5.404-1.301
	l-3.604,14.212l-3.901-1L219.097,4.604z M224.002,23.121c4.104,1.001,7.105-0.901,8.107-4.804c1-3.904-0.801-6.906-4.905-7.907
	l-5.005-1.301l-3.203,12.812L224.002,23.121z"/>
<path d="M250.224,13.612l15.313,6.406l-1.4,3.403l-11.61-4.804l-4.504,10.81l10.109,4.204l-1.402,3.403l-10.108-4.203l-4.805,11.41
	l12.111,5.004l-1.401,3.403l-15.813-6.606L250.224,13.612z"/>
<path d="M278.35,26.424l7.605,4.704c6.105,3.703,7.407,8.808,4.204,14.013c-2.202,3.503-5.904,5.705-10.009,4.704l-1.001,18.217
	l-3.804-2.402l1.201-17.116l-5.104-3.102l-7.907,13.011l-3.503-2.102L278.35,26.424z M277.449,44.941
	c3.504,2.103,6.707,1.901,9.109-2.103c1.9-3.202,1.602-6.305-2.703-8.808l-3.903-2.401l-6.605,10.809L277.449,44.941z"/>
</svg>
