<?xml version="1.0" encoding="utf-8"?>
<!-- Generator: Adobe Illustrator 16.0.0, SVG Export Plug-In . SVG Version: 6.00 Build 0)  -->
<!DOCTYPE svg PUBLIC "-//W3C//DTD SVG 1.1//EN" "http://www.w3.org/Graphics/SVG/1.1/DTD/svg11.dtd">
<svg version="1.1" id="Layer_1" xmlns="http://www.w3.org/2000/svg" xmlns:xlink="http://www.w3.org/1999/xlink" x="0px" y="0px"
	 width="363.732px" height="133.421px" viewBox="-20.877 0.263 363.732 133.421"
	 enable-background="new -20.877 0.263 363.732 133.421" xml:space="preserve">
<path d="M72.589,27.221l-0.901,3.603c-2.202-0.5-6.105-1.101-10.81,1.702c-6.906,4.104-8.507,12.211-4.304,19.316
	c4.304,7.308,12.211,9.509,18.917,5.505c5.005-3.002,6.606-6.905,7.006-8.407l-3.703-6.306l-6.706,4.004l-1.802-3.103l10.109-6.006
	l6.406,10.91c-1.301,5.204-4.304,9.108-9.409,12.11c-8.608,5.105-18.917,2.503-24.422-6.605c-5.205-8.808-2.802-19.518,6.006-24.723
	C64.882,25.82,70.086,26.521,72.589,27.221z"/>
<path d="M85.3,16.812l8.408-3.003c6.706-2.402,11.51-0.3,13.512,5.505c1.401,3.903,0.701,8.208-2.603,10.81l13.612,12.211
	l-4.204,1.501l-12.511-11.71l-5.605,2.002l5.105,14.312l-3.804,1.4L85.3,16.812z M99.213,29.123
	c3.903-1.401,5.605-4.003,4.104-8.408c-1.201-3.503-3.903-5.104-8.607-3.503l-4.304,1.501l4.304,11.911L99.213,29.123z"/>
<path d="M134.845,2.899c10.109-1.501,18.817,5.305,20.318,15.414c1.501,10.209-5.004,19.118-15.114,20.518
	c-10.009,1.502-18.717-5.104-20.218-15.414C118.23,13.208,124.736,4.3,134.845,2.899z M139.549,35.128
	c7.707-1.101,12.611-8.007,11.411-16.214c-1.201-8.107-7.907-13.412-15.614-12.211c-7.707,1.101-12.611,8.107-11.411,16.215
	C125.136,31.024,131.842,36.229,139.549,35.128z"/>
<path d="M165.573,23.317l1.501-22.42l4.004,0.3l-1.502,22.42c-0.4,5.805,2.402,9.709,8.309,10.11c5.904,0.4,9.308-3.104,9.708-8.909
	l1.501-22.42l4.004,0.3l-1.501,22.42c-0.501,7.907-5.604,12.911-13.913,12.312C169.276,36.829,164.973,31.225,165.573,23.317z"/>
<path d="M208.312,5.501l9.309,2.302c6.206,1.501,9.208,6.206,7.707,12.312c-1.501,6.105-6.706,8.908-12.611,7.407l-5.405-1.301
	l-3.604,14.212l-3.902-1L208.312,5.501z M213.217,24.018c4.104,1.001,7.105-0.901,8.107-4.804c1-3.904-0.801-6.906-4.905-7.907
	l-5.005-1.301l-3.203,12.812L213.217,24.018z"/>
<path d="M239.439,14.509l15.314,6.406l-1.401,3.403l-11.61-4.804l-4.504,10.81l10.109,4.204l-1.402,3.403l-10.108-4.203
	l-4.805,11.41l12.111,5.004l-1.401,3.403l-15.814-6.606L239.439,14.509z"/>
<path d="M267.565,27.321l7.606,4.704c6.105,3.703,7.407,8.808,4.204,14.013c-2.202,3.503-5.905,5.705-10.009,4.704l-1.001,18.217
	l-3.804-2.402l1.201-17.116l-5.104-3.102l-7.907,13.011l-3.503-2.102L267.565,27.321z M266.664,45.838
	c3.504,2.103,6.707,1.901,9.109-2.103c1.901-3.202,1.602-6.305-2.703-8.808l-3.903-2.401l-6.606,10.809L266.664,45.838z"/>
</svg>
