<svg xmlns="http://www.w3.org/2000/svg" width="331" height="103" viewBox="0 0 330.7 102.8"><style>.a{fill:#010101;}</style><path d="M67 21.9l3.7-1.6 6 14.1 17.1-7.3L87.8 13l3.7-1.6 13.7 32.2 -3.7 1.6L95.3 30.6 78.2 37.8l6.2 14.7 -3.7 1.6L67 21.9z" class="a"/><path d="M105.7 7.4l3.9-1 9 33.8 -3.9 1L105.7 7.4z" class="a"/><path d="M123.5 3.1l8.8-1.2c7.1-1 11.3 2.1 12.1 8.1 0.6 4.1-1 8.2-4.8 10l10.8 14.7 -4.5 0.6 -9.9-14 -5.9 0.8 2.1 15.1 -4 0.5L123.5 3.1zM134.5 18.1c4.1-0.6 6.3-2.8 5.7-7.3 -0.5-3.7-2.8-5.8-7.7-5.2l-4.6 0.6 1.7 12.5L134.5 18.1z" class="a"/><path d="M162.3 23.4l-4.7 11.2 -4.1-0.2L168.1 0l4.1 0.2 11.7 35.5 -4.1-0.2 -3.7-11.5L162.3 23.4zM170 4.5l-6.2 15.5 11.2 0.5L170 4.5z" class="a"/><path d="M208.9 33l19.1-22.9 5 1.3 -8.9 33.8 -3.8-1 7.4-27.9L209.6 38.2l-3.9-1 -4.9-27.9 -7.4 27.9 -3.8-1 8.9-33.8 5 1.3L208.9 33z" class="a"/><path d="M247.8 18.1l14.9 7.3 -1.6 3.3 -11.3-5.5 -5.1 10.5 9.8 4.8 -1.6 3.3 -9.8-4.8 -5.5 11.1 11.8 5.8 -1.6 3.3 -15.4-7.6L247.8 18.1z" class="a"/></svg>
