<?xml version="1.0" encoding="utf-8"?>
<!-- Generator: Adobe Illustrator 16.0.0, SVG Export Plug-In . SVG Version: 6.00 Build 0)  -->
<!DOCTYPE svg PUBLIC "-//W3C//DTD SVG 1.1//EN" "http://www.w3.org/Graphics/SVG/1.1/DTD/svg11.dtd">
<svg version="1.1" id="Layer_1" xmlns="http://www.w3.org/2000/svg" xmlns:xlink="http://www.w3.org/1999/xlink" x="0px" y="0px"
	 width="577.772px" height="177.017px" viewBox="0 0 577.772 177.017" enable-background="new 0 0 577.772 177.017"
	 xml:space="preserve">
<g>
	<path d="M90.602,126.871l15.866-107.941l18.063-5.404l36.733,122.779l-13.685,4.095L117.252,39.017l-14.598,102.592l-14.033,4.198
		L20.083,68.088l30.33,101.379l-13.683,4.095L0,50.783l18.241-5.458L90.602,126.871z"/>
	<path d="M235.814,87.604l-14.055,42.035l-15.012,0.476l43.89-129.639L265.648,0l52.016,126.595l-15.009,0.479l-16.692-41.062
		L235.814,87.604z M258.659,16.526l-18.675,58.121l41.18-1.306L258.659,16.526z"/>
	<path d="M389.49,5.697l14.538,2.947l-11.154,55.099l66.769,13.519l11.157-55.103l14.538,2.947l-25.441,125.637l-14.538-2.94
		l11.591-57.255l-66.765-13.522l-11.596,57.256l-14.54-2.943L389.49,5.697z"/>
	<path d="M564,52.499l13.772,5.504l-47.563,119.014l-13.77-5.507L564,52.499z"/>
</g>
</svg>
