<svg xmlns="http://www.w3.org/2000/svg" width="331" height="103" viewBox="0 0 330.7 102.8"><style>.a{fill:#020202;}</style><path d="M120.7 32.4l5.7-29.2 5-1.2 8.4 34 -3.8 0.9 -7-28 -5.3 27.8 -3.9 1 -17.7-22.1 7 28 -3.8 0.9L97 10.5l5-1.3L120.7 32.4z" class="a"/><path d="M153.7 23.8l-3.9 11.4 -4.1 0.1 12.3-35.3 4.1-0.1 13.9 34.7 -4.1 0.1 -4.5-11.2L153.7 23.8zM160.2 4.5l-5.2 15.8 11.2-0.3L160.2 4.5z" class="a"/><path d="M188 0.8l4 0.7 -2.6 15.1 18.3 3.2 2.6-15.1 4 0.7 -6 34.5 -4-0.7 2.7-15.7 -18.3-3.2 -2.7 15.7 -4-0.7L188 0.8z" class="a"/><path d="M228.3 9.7l3.9 1.2 -10.8 33.3 -3.9-1.2L228.3 9.7z" class="a"/></svg>
