<?xml version="1.0" encoding="utf-8"?>
<!-- Generator: Adobe Illustrator 16.0.0, SVG Export Plug-In . SVG Version: 6.00 Build 0)  -->
<!DOCTYPE svg PUBLIC "-//W3C//DTD SVG 1.1//EN" "http://www.w3.org/Graphics/SVG/1.1/DTD/svg11.dtd">
<svg version="1.1" id="Layer_1" xmlns="http://www.w3.org/2000/svg" xmlns:xlink="http://www.w3.org/1999/xlink" x="0px" y="0px"
	 width="363.732px" height="133.421px" viewBox="-20.877 0.263 363.732 133.421"
	 enable-background="new -20.877 0.263 363.732 133.421" xml:space="preserve">
<g>
	<path fill="#231F20" d="M52.404,63.947l-5.791-29.223l4.153-3.043L71.449,59.91l-3.146,2.307L51.225,38.906l5.629,27.731L53.627,69
		L28.883,55.275L45.96,78.586l-3.146,2.305L22.133,52.659l4.194-3.073L52.404,63.947z"/>
	<path fill="#231F20" d="M79.706,43.524l0.689,12.083l-3.758,1.64l-1.988-37.316l3.758-1.639l26.001,26.84l-3.758,1.641
		l-8.387-8.724L79.706,43.524z M78.308,23.189l1.146,16.628l10.311-4.499L78.308,23.189z"/>
	<path fill="#231F20" d="M102.69,9.259l3.955-0.869l3.294,14.99l18.165-3.991l-3.294-14.99l3.955-0.869l7.511,34.181l-3.956,0.869
		l-3.422-15.576l-18.165,3.991l3.423,15.577l-3.955,0.869L102.69,9.259z"/>
	<path fill="#231F20" d="M143.384,2.176l4.038-0.306l2.636,34.905l-4.038,0.305L143.384,2.176z"/>
	<path fill="#231F20" d="M158.582,19.437l12.748,0.245l-0.07,3.699l-12.748-0.245L158.582,19.437z"/>
	<path fill="#231F20" d="M197.605,32.066L215.32,8.11l5.047,1.024l-6.956,34.3l-3.821-0.774l5.743-28.322l-16.722,22.831
		l-3.92-0.794l-6.506-27.542l-5.742,28.322l-3.822-0.774l6.956-34.3l5.096,1.034L197.605,32.066z"/>
	<path fill="#231F20" d="M231.074,38.506l-8.463,8.653l-3.743-1.672l26.229-26.622l3.742,1.671l-2.304,37.302l-3.743-1.671
		l0.79-12.077L231.074,38.506z M245.155,23.764L233.643,35.82l10.272,4.585L245.155,23.764z"/>
	<path fill="#231F20" d="M271.889,32.396l3.309,2.336l-8.854,12.539l15.192,10.728l8.854-12.539l3.308,2.335l-20.187,28.588
		l-3.308-2.335l9.198-13.027L264.21,50.292l-9.198,13.028l-3.309-2.336L271.889,32.396z"/>
	<path fill="#231F20" d="M304.535,57.691l2.945,2.777l-24.016,25.452l-2.945-2.779L304.535,57.691z"/>
</g>
</svg>
