<?xml version="1.0" encoding="utf-8"?>
<!-- Generator: Adobe Illustrator 16.0.0, SVG Export Plug-In . SVG Version: 6.00 Build 0)  -->
<!DOCTYPE svg PUBLIC "-//W3C//DTD SVG 1.1//EN" "http://www.w3.org/Graphics/SVG/1.1/DTD/svg11.dtd">
<svg version="1.1" id="Layer_1" xmlns="http://www.w3.org/2000/svg" xmlns:xlink="http://www.w3.org/1999/xlink" x="0px" y="0px"
	 width="363.732px" height="133.421px" viewBox="-20.877 0.263 363.732 133.421"
	 enable-background="new -20.877 0.263 363.732 133.421" xml:space="preserve">
<path d="M9.132,67.023l6.406-6.205c5.104-5.006,10.309-5.006,14.613-0.701c2.902,3.002,4.104,7.105,2.102,10.91l17.416,5.404
	l-3.203,3.104l-16.314-5.406l-4.304,4.205l10.61,10.91l-2.903,2.801L9.132,67.023z M26.848,72.428
	c2.903-2.902,3.403-6.006,0.2-9.309c-2.603-2.602-5.705-3.002-9.208,0.4l-3.303,3.203l8.808,9.109L26.848,72.428z"/>
<path d="M34.755,43.902l13.512-9.609l2.102,3.003L40.16,44.603l6.706,9.508l8.908-6.305l2.102,3.002l-8.908,6.305l7.106,10.109
	l10.709-7.605l2.102,3.002l-13.913,9.908L34.755,43.902z"/>
<path d="M60.779,26.587l6.506-3.103c10.81-5.205,19.718-2.202,24.522,7.607c5.004,10.509,1.201,18.817-9.309,23.921l-6.506,3.104
	L60.779,26.587z M81.598,51.509c7.607-3.604,10.41-10.31,6.406-18.517c-3.803-7.907-10.91-10.109-18.417-6.506l-3.604,1.701
	l12.011,25.023L81.598,51.509z"/>
<path d="M120.433,31.792c1.501,2.502,4.003,4.804,8.608,3.903c3.603-0.701,5.805-3.303,5.104-6.906
	c-1.702-8.607-17.316-3.203-19.518-14.313c-1.001-4.904,2.001-9.508,8.107-10.709c6.106-1.201,9.709,2.502,11.01,4.704l-3.103,2.002
	c-1.101-1.602-3.503-3.804-7.307-3.003c-3.803,0.701-5.305,3.403-4.804,6.306c1.501,7.807,17.416,3.003,19.518,14.013
	c1.101,5.405-2.102,10.41-8.508,11.711c-6.706,1.301-10.509-2.402-12.211-5.405L120.433,31.792z"/>
<path d="M146.857,0.663l4.003-0.1l19.718,27.625l-0.4-27.825l4.004-0.1l0.5,35.032l-4.003,0.1L151.061,7.87l0.4,27.725l-4.003,0.1
	L146.857,0.663z"/>
<path d="M190.896,25.986l-6.205,10.409l-4.004-0.801l19.317-32.029l4.004,0.801l6.405,36.833l-4.003-0.8l-2.002-11.911
	L190.896,25.986z M201.206,8.37l-8.407,14.413l11.109,2.102L201.206,8.37z"/>
<path d="M228.531,10.572l9.008,3.303c6.006,2.202,8.508,7.207,6.306,13.112c-2.202,5.906-7.606,8.107-13.412,6.006l-5.204-1.902
	l-5.105,13.712l-3.803-1.401L228.531,10.572z M231.334,29.489c3.902,1.501,7.105-0.1,8.607-3.903c1.401-3.704,0-6.906-4.004-8.408
	l-4.904-1.802l-4.604,12.311L231.334,29.489z"/>
<path d="M258.559,22.983l8.407,4.704c5.505,3.103,7.307,8.408,4.204,13.913c-3.104,5.505-8.708,6.906-14.113,3.904l-4.805-2.703
	l-7.105,12.812l-3.504-2.002L258.559,22.983z M258.458,42.101c3.704,2.002,7.106,1.001,9.009-2.602c1.901-3.503,1-6.906-2.604-8.908
	l-4.504-2.502l-6.405,11.511L258.458,42.101z"/>
<path d="M286.283,39.699l13.111,10.109l-2.301,2.903l-9.91-7.708l-7.105,9.208l8.707,6.707l-2.201,2.902l-8.709-6.707l-7.506,9.811
	l10.409,8.006l-2.202,2.902l-13.612-10.508L286.283,39.699z"/>
<path d="M310.005,59.416l6.105,6.506c4.904,5.205,4.904,10.41,0.501,14.613c-3.004,2.902-7.207,4.004-10.91,1.902l-5.705,17.416
	l-3.104-3.303l5.605-16.215l-4.104-4.305l-11.01,10.51l-2.803-2.902L310.005,59.416z M304.4,77.031
	c2.802,3.004,6.005,3.504,9.308,0.4c2.702-2.502,3.103-5.604-0.3-9.207l-3.203-3.303l-9.209,8.707L304.4,77.031z"/>
</svg>
