<svg xmlns="http://www.w3.org/2000/svg" width="331" height="103" viewBox="0 0 330.7 102.8"><style>.a{fill:#010101;}</style><path d="M10 66.7l6.4-6.2c5.1-5 10.3-5 14.6-0.7 2.9 3 4.1 7.1 2.1 10.9l17.4 5.4 -3.2 3.1 -16.3-5.4 -4.3 4.2 10.6 10.9 -2.9 2.8L10 66.7zM27.7 72.1c2.9-2.9 3.4-6 0.2-9.3 -2.6-2.6-5.7-3-9.2 0.4l-3.3 3.2 8.8 9.1L27.7 72.1z" class="a"/><path d="M35.6 43.6l13.5-9.6 2.1 3 -10.2 7.3 6.7 9.5 8.9-6.3 2.1 3 -8.9 6.3 7.1 10.1 10.7-7.6 2.1 3L55.8 72.2 35.6 43.6z" class="a"/><path d="M61.6 26.3l6.5-3.1c10.8-5.2 19.7-2.2 24.5 7.6 5 10.5 1.2 18.8-9.3 23.9l-6.5 3.1L61.6 26.3zM82.4 51.2c7.6-3.6 10.4-10.3 6.4-18.5 -3.8-7.9-10.9-10.1-18.4-6.5l-3.6 1.7 12 25L82.4 51.2z" class="a"/><path d="M121.2 31.5c1.5 2.5 4 4.8 8.6 3.9 3.6-0.7 5.8-3.3 5.1-6.9 -1.7-8.6-17.3-3.2-19.5-14.3 -1-4.9 2-9.5 8.1-10.7 6.1-1.2 9.7 2.5 11 4.7l-3.1 2c-1.1-1.6-3.5-3.8-7.3-3 -3.8 0.7-5.3 3.4-4.8 6.3 1.5 7.8 17.4 3 19.5 14 1.1 5.4-2.1 10.4-8.5 11.7 -6.7 1.3-10.5-2.4-12.2-5.4L121.2 31.5z" class="a"/><path d="M147.6 0.4l4-0.1 19.7 27.6 -0.4-27.8 4-0.1 0.5 35 -4 0.1L151.8 7.6l0.4 27.7 -4 0.1L147.6 0.4z" class="a"/><path d="M191.6 25.7l-6.2 10.4 -4-0.8 19.3-32 4 0.8 6.4 36.8 -4-0.8 -2-11.9L191.6 25.7zM201.9 8.1l-8.4 14.4 11.1 2.1L201.9 8.1z" class="a"/><path d="M229.2 10.3l9 3.3c6 2.2 8.5 7.2 6.3 13.1 -2.2 5.9-7.6 8.1-13.4 6l-5.2-1.9 -5.1 13.7 -3.8-1.4L229.2 10.3zM232 29.2c3.9 1.5 7.1-0.1 8.6-3.9 1.4-3.7 0-6.9-4-8.4l-4.9-1.8 -4.6 12.3L232 29.2z" class="a"/><path d="M259.2 22.7l8.4 4.7c5.5 3.1 7.3 8.4 4.2 13.9 -3.1 5.5-8.7 6.9-14.1 3.9l-4.8-2.7 -7.1 12.8 -3.5-2L259.2 22.7zM259.1 41.8c3.7 2 7.1 1 9-2.6 1.9-3.5 1-6.9-2.6-8.9l-4.5-2.5 -6.4 11.5L259.1 41.8z" class="a"/><path d="M286.9 39.4l13.1 10.1 -2.3 2.9 -9.9-7.7 -7.1 9.2 8.7 6.7 -2.2 2.9 -8.7-6.7 -7.5 9.8 10.4 8 -2.2 2.9 -13.6-10.5L286.9 39.4z" class="a"/><path d="M310.6 59.1l6.1 6.5c4.9 5.2 4.9 10.4 0.5 14.6 -3 2.9-7.2 4-10.9 1.9l-5.7 17.4 -3.1-3.3 5.6-16.2 -4.1-4.3 -11 10.5 -2.8-2.9L310.6 59.1zM305 76.7c2.8 3 6 3.5 9.3 0.4 2.7-2.5 3.1-5.6-0.3-9.2l-3.2-3.3 -9.2 8.7L305 76.7z" class="a"/></svg>
