<?xml version="1.0" encoding="utf-8"?>
<!-- Generator: Adobe Illustrator 16.0.0, SVG Export Plug-In . SVG Version: 6.00 Build 0)  -->
<!DOCTYPE svg PUBLIC "-//W3C//DTD SVG 1.1//EN" "http://www.w3.org/Graphics/SVG/1.1/DTD/svg11.dtd">
<svg version="1.1" id="Layer_1" xmlns="http://www.w3.org/2000/svg" xmlns:xlink="http://www.w3.org/1999/xlink" x="0px" y="0px"
	 width="363.732px" height="133.421px" viewBox="-20.877 0.263 363.732 133.421"
	 enable-background="new -20.877 0.263 363.732 133.421" xml:space="preserve">
<g>
	<path fill="#231F20" d="M-20.877,103.918l5.277-8.077c3.638-5.566,8.534-6.847,13.18-3.812c2.931,1.914,4.234,4.856,3.985,7.979
		c2.837-2.148,6.592-2.502,10.149-0.177c5.273,3.444,5.841,9.249,2.56,14.272l-5.853,8.957L-20.877,103.918z M-2.671,103.749
		c1.914-2.93,1.205-6.141-1.767-8.081c-2.889-1.888-5.851-1.374-7.901,1.766l-3.31,5.063l9.67,6.317L-2.671,103.749z M10.92,112.748
		c2.27-3.475,2.182-6.995-1.586-9.457c-3.852-2.516-7.025-0.946-9.24,2.443l-3.227,4.938l10.799,7.056L10.92,112.748z"/>
	<path fill="#231F20" d="M-1.08,76.019l2.703-3.016l23.348,20.918l8.741-9.757L36.43,86.6L24.986,99.372L-1.08,76.019z"/>
	<path fill="#231F20" d="M38.142,69.73l3.832,11.479l-3.196,2.567L27.075,48.285l3.197-2.567l32.129,19.086l-3.196,2.567
		l-10.382-6.219L38.142,69.73z M31.46,50.471l5.465,15.748l8.771-7.045L31.46,50.471z"/>
	<path fill="#231F20" d="M89.148,46.523c-0.634,1.692-2.906,6.058-8.123,8.813c-9.062,4.787-19.336,1.393-24.169-7.758
		c-4.81-9.107-1.624-19.667,7.13-24.29c4.642-2.452,8.961-2.302,11.297-1.84l0.531,3.79c-1.707-0.341-5.854-0.808-9.965,1.363
		c-6.853,3.619-9.086,11.81-5.28,19.015c3.806,7.206,11.608,10.096,18.771,6.313c4.686-2.475,6.451-6.517,7.046-7.962L89.148,46.523
		z"/>
	<path fill="#231F20" d="M86.769,13.598l3.855-1.242l4.94,15.326l8.34-19.605l4.664-1.503l-8.855,20.454l20.163,12.679l-4.712,1.519
		L95.963,28.919l5.398,16.753l-3.855,1.243L86.769,13.598z"/>
	<path fill="#231F20" d="M138.669,1.403l16.562-1.141l0.254,3.691l-12.521,0.863l0.824,11.972l10.975-0.756l0.251,3.641
		l-10.976,0.756l1.076,15.614l-4.04,0.279L138.669,1.403z"/>
	<path fill="#231F20" d="M167.974,0.487l4.047,0.177l-1.526,34.969l-4.048-0.177L167.974,0.487z"/>
	<path fill="#231F20" d="M186.711,1.533l3.978,0.754l13.774,30.953l5.186-27.358l3.93,0.745l-6.518,34.382l-3.93-0.745L189.34,9.409
		l-5.167,27.26l-3.979-0.753L186.711,1.533z"/>
	<path fill="#231F20" d="M249.619,23.993l-8.5-4.127l1.615-3.328l20.6,10.001l-1.617,3.329l-8.455-4.106l-13.67,28.155l-3.643-1.769
		L249.619,23.993z"/>
	<path fill="#231F20" d="M261.447,51.288l13.206-18.154l3.275,2.382l-13.178,18.113c-3.412,4.69-3.082,9.506,1.689,12.978
		c4.771,3.471,9.495,2.331,12.937-2.398l13.148-18.073l3.233,2.353l-13.178,18.114c-4.646,6.388-11.635,7.92-18.347,3.037
		C257.441,64.697,256.77,57.716,261.447,51.288z"/>
	<path fill="#231F20" d="M307.829,59.217l2.724,2.996l-7.627,33.012l20.608-18.73l2.69,2.959l-25.898,23.54l-2.689-2.959
		l7.552-32.945l-20.532,18.664l-2.725-2.996L307.829,59.217z"/>
	<path fill="#231F20" d="M318.001,108.982l-11.892,2.239L304,107.707l36.746-6.778l2.109,3.515l-23.265,29.24l-2.11-3.515l7.57-9.44
		L318.001,108.982z M337.986,104.975l-16.342,3.278l5.789,9.645L337.986,104.975z"/>
</g>
</svg>
