<?xml version="1.0" encoding="utf-8"?>
<!-- Generator: Adobe Illustrator 16.0.0, SVG Export Plug-In . SVG Version: 6.00 Build 0)  -->
<!DOCTYPE svg PUBLIC "-//W3C//DTD SVG 1.1//EN" "http://www.w3.org/Graphics/SVG/1.1/DTD/svg11.dtd">
<svg version="1.1" id="Layer_1" xmlns="http://www.w3.org/2000/svg" xmlns:xlink="http://www.w3.org/1999/xlink" x="0px" y="0px"
	 width="374px" height="94px" viewBox="-16.53 -5.89 374 94" enable-background="new -16.53 -5.89 374 94" xml:space="preserve">
<path d="M220.02,2v13.83v29.799c0,1.141-1.08,2-2.16,2c-1.229,0-2.159-0.859-2.159-2v-8.27c-3.551,6.561-9.881,11.26-17.9,11.26
	c-12.811,0-19.9-10.27-19.9-21.1V2c0-1,0.92-2,2.16-2s2.16,1,2.16,2v25.52c0,8.55,5.25,17.109,15.58,17.109
	c14.5,0,17.9-12.549,17.9-26.379V2c0-1,0.92-2,2.159-2C218.94,0,220.02,1,220.02,2"/>
<path d="M271.23,2v13.83v29.799c0,1.141-1.08,2-2.16,2c-1.24,0-2.16-0.859-2.16-2v-8.27c-3.55,6.561-9.88,11.26-17.9,11.26
	c-12.809,0-19.899-10.27-19.899-21.1V2c0-1,0.931-2,2.16-2s2.16,1,2.16,2v25.52c0,8.55,5.25,17.109,15.579,17.109
	c14.5,0,17.9-12.549,17.9-26.379V2c0-1,0.92-2,2.16-2C270.15,0,271.23,1,271.23,2"/>
<path d="M49.84,23.59c0,12.97-10.49,24.81-24.99,24.81C10.34,48.4,0,36.56,0,23.59C0,10.75,10.34-1.22,24.84-1.22
	S49.84,10.75,49.84,23.59 M45.36,23.59c0-10.55-8.33-20.67-20.52-20.67C12.8,2.92,4.32,13.04,4.32,23.59
	c0,10.69,8.49,20.821,20.52,20.821C37.03,44.411,45.36,34.28,45.36,23.59"/>
<path d="M49.63,23.56c0,10.69,8.49,20.819,20.52,20.819v3.99c-14.5,0-24.84-11.83-24.84-24.81"/>
<path d="M114.66,1.57v54.37c0,1.141-0.93,2-2.16,2s-2.14-4.37-2.14-5.5l-0.02-16.5c-4.32,7.26-12.34,12.4-21.6,12.4
	c-14.5,0-24.84-11.98-24.84-24.81C63.9,10.7,74.24-1.28,88.74-1.28c9.26,0,17.28,4.99,21.6,12.41V1.57c0-1,0.92-2,2.16-2
	S114.66,0.57,114.66,1.57 M109.26,23.53c0-10.69-8.33-20.82-20.52-20.82c-12.04,0-20.52,10.12-20.52,20.82
	c0,10.7,8.49,20.82,20.52,20.82C100.93,44.35,109.26,34.22,109.26,23.53"/>
<path d="M114.69,52.411c0,10.689,8.49,20.819,20.52,20.819v3.989c-14.5,0-24.84-11.829-24.84-24.809"/>
<path d="M168.82,1.57v54.37c0,1.141-0.93,2-2.16,2c-1.24,0-2.14-4.37-2.14-5.5l-0.02-16.5c-4.32,7.27-12.34,12.41-21.6,12.41
	c-14.5,0-24.84-11.98-24.84-24.81S128.4-1.28,142.9-1.28c9.26,0,17.28,4.99,21.6,12.41V1.57c0-1,0.92-2,2.16-2
	C167.9-0.43,168.82,0.57,168.82,1.57 M163.42,23.53c0-10.69-8.33-20.82-20.52-20.82c-12.04,0-20.52,10.12-20.52,20.82
	c0,10.7,8.49,20.82,20.52,20.82C155.09,44.35,163.42,34.22,163.42,23.53"/>
<path d="M168.85,52.411c0,10.689,8.489,20.819,20.521,20.819v3.989c-14.5,0-24.841-11.829-24.841-24.809"/>
<path d="M327.63,23.23c0,12.97-10.49,24.81-24.99,24.81S277.8,36.21,277.8,23.23c0-12.83,10.34-24.81,24.84-24.81
	S327.63,10.4,327.63,23.23 M323.15,23.23c0-10.55-8.33-20.68-20.52-20.68c-12.041,0-20.521,10.12-20.521,20.68
	c0,10.69,8.479,20.819,20.521,20.819C314.82,44.049,323.15,33.92,323.15,23.23"/>
<path d="M327.419,23.21c0,10.69,8.49,20.82,20.521,20.82v3.99c-14.5,0-24.842-11.83-24.842-24.81"/>
<path fill="none" d="M-24.15-335.64"/>
<path fill="none" d="M-24.15,456.36"/>
</svg>
