<?xml version="1.0" encoding="utf-8"?>
<!-- Generator: Adobe Illustrator 16.0.0, SVG Export Plug-In . SVG Version: 6.00 Build 0)  -->
<!DOCTYPE svg PUBLIC "-//W3C//DTD SVG 1.1//EN" "http://www.w3.org/Graphics/SVG/1.1/DTD/svg11.dtd">
<svg version="1.1" id="Layer_1" xmlns="http://www.w3.org/2000/svg" xmlns:xlink="http://www.w3.org/1999/xlink" x="0px" y="0px"
	 width="404.484px" height="404.484px" viewBox="-29.242 -160.458 404.484 404.484"
	 enable-background="new -29.242 -160.458 404.484 404.484" xml:space="preserve">
<circle cx="173" cy="41.784" r="202.242"/>
<path fill="#FFFFFF" d="M219.83,12.561v13.734v29.657c0,1.096-1.096,1.99-2.189,1.99c-1.193,0-2.188-0.895-2.188-1.99v-8.26
	c-3.582,6.568-9.853,11.246-17.812,11.246c-12.739,0-19.805-10.251-19.805-20.999V12.561c0-0.995,0.895-1.99,2.189-1.99
	c1.293,0,2.189,0.995,2.189,1.99v25.378c0,8.559,5.273,17.019,15.525,17.019c14.43,0,17.812-12.441,17.812-26.274V12.561
	c0-0.995,0.896-1.99,2.188-1.99C218.734,10.57,219.83,11.565,219.83,12.561"/>
<path fill="#FFFFFF" d="M270.783,12.561v13.734v29.657c0,1.096-1.094,1.99-2.189,1.99c-1.191,0-2.188-0.895-2.188-1.99v-8.26
	c-3.481,6.568-9.852,11.246-17.813,11.246c-12.737,0-19.805-10.251-19.805-20.999V12.561c0-0.995,0.896-1.99,2.188-1.99
	s2.189,0.995,2.189,1.99v25.378c0,8.559,5.273,17.019,15.523,17.019c14.432,0,17.813-12.441,17.813-26.274V12.561
	c0-0.995,0.896-1.99,2.188-1.99C269.789,10.57,270.783,11.565,270.783,12.561"/>
<path fill="#FFFFFF" d="M50.445,34.057c0,12.937-10.45,24.681-24.88,24.681c-14.431,0-24.681-11.744-24.681-24.681
	c0-12.739,10.25-24.681,24.681-24.681S50.445,21.318,50.445,34.057 M46.066,34.057c0-10.45-8.26-20.601-20.401-20.601
	c-12.042,0-20.501,10.051-20.501,20.601c0,10.648,8.459,20.701,20.402,20.701C37.707,54.758,46.066,44.705,46.066,34.057"/>
<path fill="#FFFFFF" d="M50.247,34.057c0,10.648,8.459,20.701,20.401,20.701v3.98c-14.43,0-24.681-11.744-24.681-24.681"/>
<path fill="#FFFFFF" d="M115.034,12.163v54.139c0,1.095-0.896,1.99-2.189,1.99c-1.293,0-2.09-4.379-2.09-5.474V46.397
	c-4.279,7.265-12.241,12.341-21.497,12.341c-14.43,0-24.681-11.942-24.681-24.681C64.478,21.219,74.729,9.276,89.159,9.276
	c9.255,0,17.217,4.976,21.497,12.341v-9.455c0-0.995,0.896-1.99,2.189-1.99C114.138,10.172,115.034,11.167,115.034,12.163
	 M109.66,33.958c0-10.648-8.26-20.7-20.402-20.7c-11.942,0-20.401,10.052-20.401,20.7c0,10.649,8.459,20.701,20.401,20.701
	C101.3,54.758,109.66,44.606,109.66,33.958"/>
<path fill="#FFFFFF" d="M115.034,62.719c0,10.648,8.459,20.7,20.402,20.7V87.4c-14.431,0-24.681-11.744-24.681-24.682"/>
<path fill="#FFFFFF" d="M168.875,12.163v54.139c0,1.095-0.896,1.99-2.189,1.99c-1.194,0-2.09-4.379-2.09-5.474V46.397
	c-4.279,7.265-12.241,12.341-21.496,12.341c-14.431,0-24.681-11.942-24.681-24.681c0-12.739,10.25-24.781,24.681-24.781
	c9.255,0,17.217,4.976,21.496,12.341v-9.455c0-0.995,0.896-1.99,2.189-1.99C167.979,10.172,168.875,11.167,168.875,12.163
	 M163.5,33.958c0-10.648-8.26-20.7-20.401-20.7c-11.943,0-20.402,10.052-20.402,20.7c0,10.649,8.459,20.701,20.402,20.701
	C155.24,54.758,163.5,44.606,163.5,33.958"/>
<path fill="#FFFFFF" d="M168.974,62.719c0,10.648,8.459,20.7,20.402,20.7V87.4c-14.431,0-24.681-11.744-24.681-24.682"/>
<path fill="#FFFFFF" d="M326.914,33.659c0,12.938-10.451,24.681-24.881,24.681c-14.432,0-24.682-11.743-24.682-24.681
	c0-12.739,10.25-24.681,24.682-24.681C316.462,8.978,326.914,20.92,326.914,33.659 M322.535,33.659
	c0-10.45-8.262-20.601-20.402-20.601c-11.941,0-20.4,10.052-20.4,20.601c0,10.648,8.459,20.7,20.4,20.7
	C314.173,54.359,322.535,44.308,322.535,33.659"/>
<path fill="#FFFFFF" d="M326.714,33.659c0,10.648,8.459,20.7,20.399,20.7v3.98c-14.43,0-24.68-11.743-24.68-24.681"/>
<path fill="#FFFFFF" d="M332.686,5.296h-2.486V4.4h5.971v0.896h-2.486v7.165h-1.096V5.296H332.686z"/>
<path fill="#FFFFFF" d="M343.932,8.978c-0.101-1.095-0.101-2.488-0.101-3.483l0,0c-0.299,0.896-0.599,1.991-0.996,3.085
	l-1.394,3.881h-0.797l-1.293-3.782c-0.397-1.095-0.697-2.189-0.896-3.085l0,0c0,0.995-0.101,2.389-0.199,3.583l-0.196,3.483h-0.996
	l0.598-8.061h1.295l1.393,3.881c0.299,0.995,0.599,1.891,0.797,2.687l0,0c0.199-0.796,0.498-1.692,0.896-2.687l1.395-3.881h1.293
	l0.498,8.061h-0.996L343.932,8.978z"/>
<circle fill="none" stroke="#FFFFFF" stroke-width="6" stroke-miterlimit="10" cx="173" cy="41.784" r="193.742"/>
</svg>
