<svg xmlns="http://www.w3.org/2000/svg" width="720" height="720" viewBox="0 0 720 720"><style>.a{fill:#FFC80A;}</style><circle cx="399.2" cy="351" r="122.7" class="a"/><circle cx="399.2" cy="351" r="113.3" class="a"/><path d="M399.2 237.7c-62.6 0-113.3 50.7-113.3 113.3 0 40.7 21.5 76.4 53.7 96.4 0.4-2.8 0.1-5.7-0.3-8.6 -0.2-1.1-0.4-2.3-0.3-3.4 1-9.5 1.9-19 3.2-28.4 0.6-4.6 1.7-9.2 3.1-13.7 1.7-5.5 3.9-10.9 5.8-16.3 1.9-5.4 4-10.6 8-14.9 0.2-0.2 0.4-0.6 0.5-0.9 0.9-3.7 1.5-7.6 2.9-11.1 1.6-4 3.9-7.7 5.9-11.6 2.2-4.1 4.3-8.3 6.8-12.1 3.1-4.7 6.6-9.1 10.1-13.5 1.4-1.8 3.1-3.4 4.8-4.8 1.2-1 2.8-1.6 4.2-2.3 0.4 0 0.7 0 1.1 0 0.4 0.2 0.8 0.4 1.2 0.5 4.6 1.4 5.4 2.4 5.7 7.1 0 0.1 0.1 0.2 0.2 0.4 0.5-0.1 0.9-0.2 1.4-0.2 3.6-0.4 7-0.1 9 3.6 1 1.9 2.1 3.7 3.2 5.6 0.7 1.2 1.3 2.3 2.9 2.5 0.7 0.1 1.4 0.6 1.8 1.2 1 1.5 2.1 3 2.8 4.7 1 2.5 2.1 5.2 2.1 7.8 0.1 5.6 1.9 10.6 4.4 15.4 3.8 7.5 7.2 15.2 10.2 23.1 3.9 10.3 7.5 20.5 9.1 31.4 0.2 1.4 0.6 2.7 0.6 4.1 0 1.2 0.2 2.3 1.3 2.8 1.1 0.5 2.4 0.6 3.6 0.8 1.5 0.3 2.9 0.7 4.5 1 -0.3 0.7-0.4 0.9-0.5 1.1 -0.4 0.9-0.8 1.8-1.2 2.7 1 0.4 2.1 0.8 3.1 1.1 0.1 0 0.3 0 0.4 0 1 0.4 2.3 0.5 2.9 1.3 0.7 1-0.1 2.1-0.9 3 -1.9 2.1-2.2 7.1 1.4 8.3 0.3 0.1 0.6 0.3 0.9 0.5 1.2 0.9 1.2 1.6 0 2.6 -0.6 0.5-1.2 1.1-1.4 1.8 -0.5 1.2-0.9 2.5-1.1 3.8 -0.1 0.7-0.2 1.2-0.2 1.8 30.3-20.3 50.3-54.9 50.3-94.2C512.5 288.4 461.8 237.7 399.2 237.7z"/></svg>