<?xml version="1.0" encoding="utf-8"?>
<!-- Generator: Adobe Illustrator 16.0.0, SVG Export Plug-In . SVG Version: 6.00 Build 0)  -->
<!DOCTYPE svg PUBLIC "-//W3C//DTD SVG 1.1//EN" "http://www.w3.org/Graphics/SVG/1.1/DTD/svg11.dtd">
<svg version="1.1" id="Layer_1" xmlns="http://www.w3.org/2000/svg" xmlns:xlink="http://www.w3.org/1999/xlink" x="0px" y="0px"
	 width="720px" height="720px" viewBox="0 0 720 720" enable-background="new 0 0 720 720" xml:space="preserve">
<circle fill="#FFC80A" cx="399.16" cy="351" r="122.67"/>
<g>
	<circle fill="#FFC80A" cx="399.16" cy="351" r="113.33"/>
	<path d="M399.17,237.67c-62.59,0-113.33,50.74-113.33,113.33c0,40.7,21.45,76.37,53.66,96.36c0.43-2.83,0.12-5.71-0.29-8.62
		c-0.16-1.14-0.42-2.32-0.3-3.44c1.01-9.49,1.94-18.99,3.23-28.44c0.63-4.62,1.71-9.23,3.07-13.69c1.68-5.53,3.91-10.88,5.81-16.34
		c1.87-5.41,4.02-10.65,8.04-14.9c0.22-0.24,0.37-0.58,0.45-0.91c0.93-3.72,1.48-7.59,2.87-11.13c1.58-4.01,3.87-7.75,5.93-11.56
		c2.21-4.07,4.27-8.26,6.82-12.1c3.12-4.68,6.61-9.12,10.09-13.55c1.4-1.79,3.08-3.4,4.84-4.85c1.21-1,2.76-1.58,4.16-2.34
		c0.35,0,0.7,0,1.05,0c0.41,0.17,0.81,0.39,1.23,0.52c4.63,1.41,5.4,2.36,5.68,7.08c0.01,0.1,0.1,0.2,0.22,0.43
		c0.45-0.07,0.94-0.17,1.44-0.22c3.6-0.36,6.95-0.08,8.96,3.58c1.03,1.87,2.11,3.7,3.15,5.56c0.65,1.17,1.27,2.27,2.85,2.49
		c0.66,0.09,1.43,0.64,1.83,1.21c1.04,1.48,2.14,2.99,2.77,4.66c0.95,2.51,2.07,5.16,2.12,7.77c0.11,5.59,1.93,10.61,4.36,15.42
		c3.79,7.52,7.21,15.18,10.18,23.06c3.86,10.25,7.52,20.53,9.12,31.43c0.2,1.37,0.61,2.74,0.63,4.11c0.02,1.21,0.21,2.31,1.33,2.77
		c1.11,0.46,2.36,0.55,3.55,0.81c1.45,0.32,2.89,0.65,4.48,1.01c-0.34,0.68-0.45,0.88-0.55,1.09c-0.42,0.89-0.84,1.79-1.25,2.68
		c1.03,0.38,2.06,0.75,3.09,1.12c0.1,0.04,0.25-0.03,0.35,0.01c0.98,0.39,2.34,0.54,2.86,1.27c0.72,1.02-0.06,2.12-0.94,3.04
		c-1.93,2.05-2.17,7.05,1.4,8.25c0.32,0.11,0.62,0.31,0.9,0.52c1.23,0.93,1.17,1.63-0.02,2.6c-0.59,0.48-1.16,1.13-1.44,1.83
		c-0.5,1.22-0.87,2.52-1.13,3.82c-0.13,0.65-0.18,1.23-0.18,1.78c30.31-20.34,50.26-54.92,50.26-94.17
		C512.5,288.41,461.76,237.67,399.17,237.67z"/>
</g>
</svg>
