<svg xmlns="http://www.w3.org/2000/svg" width="374" height="94" viewBox="-16.5 -5.9 374 94"><style>.a{fill:none;}</style><path d="M220 2v13.8 29.8c0 1.1-1.1 2-2.2 2 -1.2 0-2.2-0.9-2.2-2v-8.3c-3.6 6.6-9.9 11.3-17.9 11.3 -12.8 0-19.9-10.3-19.9-21.1V2c0-1 0.9-2 2.2-2s2.2 1 2.2 2v25.5c0 8.6 5.3 17.1 15.6 17.1 14.5 0 17.9-12.5 17.9-26.4V2c0-1 0.9-2 2.2-2C218.9 0 220 1 220 2"/><path d="M271.2 2v13.8 29.8c0 1.1-1.1 2-2.2 2 -1.2 0-2.2-0.9-2.2-2v-8.3c-3.5 6.6-9.9 11.3-17.9 11.3 -12.8 0-19.9-10.3-19.9-21.1V2c0-1 0.9-2 2.2-2s2.2 1 2.2 2v25.5c0 8.6 5.3 17.1 15.6 17.1 14.5 0 17.9-12.5 17.9-26.4V2c0-1 0.9-2 2.2-2C270.2 0 271.2 1 271.2 2"/><path d="M49.8 23.6c0 13-10.5 24.8-25 24.8C10.3 48.4 0 36.6 0 23.6 0 10.8 10.3-1.2 24.8-1.2S49.8 10.8 49.8 23.6M45.4 23.6c0-10.5-8.3-20.7-20.5-20.7C12.8 2.9 4.3 13 4.3 23.6c0 10.7 8.5 20.8 20.5 20.8C37 44.4 45.4 34.3 45.4 23.6"/><path d="M49.6 23.6c0 10.7 8.5 20.8 20.5 20.8v4c-14.5 0-24.8-11.8-24.8-24.8"/><path d="M114.7 1.6v54.4c0 1.1-0.9 2-2.2 2s-2.1-4.4-2.1-5.5l0-16.5c-4.3 7.3-12.3 12.4-21.6 12.4 -14.5 0-24.8-12-24.8-24.8C63.9 10.7 74.2-1.3 88.7-1.3c9.3 0 17.3 5 21.6 12.4V1.6c0-1 0.9-2 2.2-2S114.7 0.6 114.7 1.6M109.3 23.5c0-10.7-8.3-20.8-20.5-20.8 -12 0-20.5 10.1-20.5 20.8 0 10.7 8.5 20.8 20.5 20.8C100.9 44.4 109.3 34.2 109.3 23.5"/><path d="M114.7 52.4c0 10.7 8.5 20.8 20.5 20.8v4c-14.5 0-24.8-11.8-24.8-24.8"/><path d="M168.8 1.6v54.4c0 1.1-0.9 2-2.2 2 -1.2 0-2.1-4.4-2.1-5.5l0-16.5c-4.3 7.3-12.3 12.4-21.6 12.4 -14.5 0-24.8-12-24.8-24.8S128.4-1.3 142.9-1.3c9.3 0 17.3 5 21.6 12.4V1.6c0-1 0.9-2 2.2-2C167.9-0.4 168.8 0.6 168.8 1.6M163.4 23.5c0-10.7-8.3-20.8-20.5-20.8 -12 0-20.5 10.1-20.5 20.8 0 10.7 8.5 20.8 20.5 20.8C155.1 44.4 163.4 34.2 163.4 23.5"/><path d="M168.9 52.4c0 10.7 8.5 20.8 20.5 20.8v4c-14.5 0-24.8-11.8-24.8-24.8"/><path d="M327.6 23.2c0 13-10.5 24.8-25 24.8S277.8 36.2 277.8 23.2c0-12.8 10.3-24.8 24.8-24.8S327.6 10.4 327.6 23.2M323.2 23.2c0-10.5-8.3-20.7-20.5-20.7 -12 0-20.5 10.1-20.5 20.7 0 10.7 8.5 20.8 20.5 20.8C314.8 44 323.2 33.9 323.2 23.2"/><path d="M327.4 23.2c0 10.7 8.5 20.8 20.5 20.8v4c-14.5 0-24.8-11.8-24.8-24.8"/></svg>