<svg xmlns="http://www.w3.org/2000/svg" width="348" height="83" viewBox="0 4.4 347.9 83.4"><path d="M220 12.6v13.8 29.8c0 1.1-1.1 2-2.2 2 -1.2 0-2.2-0.9-2.2-2v-8.3C212 54.5 205.7 59.2 197.7 59.2c-12.8 0-19.9-10.3-19.9-21.1V12.6c0-1 0.9-2 2.2-2s2.2 1 2.2 2v25.5c0 8.6 5.3 17.1 15.6 17.1 14.5 0 17.9-12.5 17.9-26.4V12.6c0-1 0.9-2 2.2-2C218.9 10.6 220 11.6 220 12.6"/><path d="M271.2 12.6v13.8 29.8c0 1.1-1.1 2-2.2 2 -1.2 0-2.2-0.9-2.2-2v-8.3c-3.5 6.6-9.9 11.3-17.9 11.3C236.1 59.2 229 48.9 229 38.1V12.6c0-1 0.9-2 2.2-2s2.2 1 2.2 2v25.5c0 8.6 5.3 17.1 15.6 17.1 14.5 0 17.9-12.5 17.9-26.4V12.6c0-1 0.9-2 2.2-2C270.2 10.6 271.2 11.6 271.2 12.6"/><path d="M49.8 34.2c0 13-10.5 24.8-25 24.8S0 47.2 0 34.2C0 21.4 10.3 9.4 24.8 9.4S49.8 21.4 49.8 34.2M45.4 34.2c0-10.5-8.3-20.7-20.5-20.7 -12.1 0-20.6 10.1-20.6 20.7C4.3 44.9 12.8 55 24.8 55 37 55 45.4 44.9 45.4 34.2"/><path d="M49.6 34.2c0 10.7 8.5 20.8 20.5 20.8v4c-14.5 0-24.8-11.8-24.8-24.8"/><path d="M114.7 12.2V66.6c0 1.1-0.9 2-2.2 2s-2.1-4.4-2.1-5.5V46.6C106.1 53.9 98.1 59 88.8 59 74.3 59 64 47 64 34.2 63.9 21.3 74.2 9.3 88.7 9.3c9.3 0 17.3 5 21.6 12.4v-9.5c0-1 0.9-2 2.2-2S114.7 11.2 114.7 12.2M109.3 34.1c0-10.7-8.3-20.8-20.5-20.8 -12 0-20.5 10.1-20.5 20.8s8.5 20.8 20.5 20.8C100.9 55 109.3 44.8 109.3 34.1"/><path d="M114.7 63c0 10.7 8.5 20.8 20.5 20.8v4C120.7 87.8 110.4 76 110.4 63"/><path d="M168.8 12.2V66.6c0 1.1-0.9 2-2.2 2 -1.2 0-2.1-4.4-2.1-5.5V46.6c-4.3 7.3-12.3 12.4-21.6 12.4 -14.5 0-24.8-12-24.8-24.8 0-12.8 10.3-24.9 24.8-24.9 9.3 0 17.3 5 21.6 12.4v-9.5c0-1 0.9-2 2.2-2C167.9 10.2 168.8 11.2 168.8 12.2M163.4 34.1c0-10.7-8.3-20.8-20.5-20.8 -12 0-20.5 10.1-20.5 20.8s8.5 20.8 20.5 20.8C155.1 55 163.4 44.8 163.4 34.1"/><path d="M168.9 63c0 10.7 8.5 20.8 20.5 20.8v4C174.9 87.8 164.6 76 164.6 63"/><path d="M327.6 33.8c0 13-10.5 24.8-25 24.8S277.8 46.8 277.8 33.8C277.8 21 288.1 9 302.6 9S327.6 21 327.6 33.8M323.2 33.8c0-10.5-8.3-20.7-20.5-20.7 -12 0-20.5 10.1-20.5 20.7 0 10.7 8.5 20.8 20.5 20.8C314.8 54.6 323.2 44.5 323.2 33.8"/><path d="M327.4 33.8c0 10.7 8.5 20.8 20.5 20.8v4C333.4 58.6 323.1 46.8 323.1 33.8"/><path d="M333.4 5.3h-2.5V4.4h6v0.9h-2.5v7.2h-1.1V5.3z"/><path d="M344.7 9c-0.1-1.1-0.1-2.5-0.1-3.5h0c-0.3 0.9-0.6 2-1 3.1l-1.4 3.9h-0.8l-1.3-3.8c-0.4-1.1-0.7-2.2-0.9-3.1h0c0 1-0.1 2.4-0.2 3.6l-0.2 3.5h-1l0.6-8.1h1.3l1.4 3.9c0.3 1 0.6 1.9 0.8 2.7h0c0.2-0.8 0.5-1.7 0.9-2.7l1.4-3.9h1.3l0.5 8.1h-1L344.7 9z"/></svg>
