<?xml version="1.0" encoding="utf-8"?>
<!-- Generator: Adobe Illustrator 16.0.0, SVG Export Plug-In . SVG Version: 6.00 Build 0)  -->
<!DOCTYPE svg PUBLIC "-//W3C//DTD SVG 1.1//EN" "http://www.w3.org/Graphics/SVG/1.1/DTD/svg11.dtd">
<svg version="1.1" id="Layer_1" xmlns="http://www.w3.org/2000/svg" xmlns:xlink="http://www.w3.org/1999/xlink" x="0px" y="0px"
	 width="404.484px" height="404.483px" viewBox="-29.242 -160.458 404.484 404.483"
	 enable-background="new -29.242 -160.458 404.484 404.483" xml:space="preserve">
<circle cx="173" cy="41.784" r="202.242"/>
<circle fill="none" stroke="#FFFFFF" stroke-width="6" stroke-miterlimit="10" cx="173" cy="41.784" r="193.742"/>
<g>
	<g>
		<path fill="#FFFFFF" d="M108.812,40.595c2.478-0.75,4.584-1.496,6.748-2.006c1.468-0.347,1.336-1.363,1.377-2.386
			c0.417-10.391,3.043-20.22,8.323-29.148c2.631-4.449,6.148-8.379,9.324-12.497c0.322-0.417,1.06-0.513,1.605-0.758
			c0.035,0.646,0.286,1.375,0.073,1.926c-4.321,11.247-7.518,22.767-8.618,34.808c-0.136,1.483-0.226,2.974-0.275,4.463
			c-0.128,3.988-0.104,3.95,3.806,4.999c3.25,0.872,6.316,0.492,9.354-0.91c1.237-0.57,1.756-1.259,1.824-2.661
			c0.565-11.511,4.022-22.091,10.628-31.554c1.697-2.431,3.79-4.593,5.788-6.8c0.411-0.455,1.205-0.562,1.823-0.83
			c0.001,0.673,0.188,1.414-0.024,2.011c-3.158,8.861-5.766,17.866-6.981,27.217c-0.423,3.248-0.6,6.531-0.769,9.804
			c-0.03,0.597,0.358,1.558,0.827,1.786c3.996,1.938,8.085,3.007,12.47,1.081c1.203-0.528,1.601-1.177,1.674-2.472
			c0.716-12.524,4.876-23.703,13.224-33.196c0.638-0.727,1.304-1.456,2.068-2.036c0.521-0.396,1.238-0.536,1.866-0.791
			c0.027,0.672,0.22,1.388,0.054,2.008c-1.641,6.106-3.635,12.135-4.937,18.31c-1.039,4.934-1.309,10.036-1.78,15.075
			c-0.058,0.619,0.598,1.641,1.188,1.926c3.764,1.821,7.674,2.119,11.742,0.942c1.433-0.415,1.983-0.933,2.075-2.526
			c0.641-10.984,4.419-20.761,11.66-29.119c0.827-0.954,1.747-1.849,2.735-2.632c0.422-0.335,1.126-0.313,1.703-0.454
			c0.022,0.54,0.175,1.113,0.05,1.616c-1.438,5.778-3.117,11.503-4.324,17.328c-0.993,4.791-1.44,9.696-2.182,14.927
			c3.329,0.713,6.421,1.459,9.549,1.997c0.974,0.168,2.074-0.113,3.064-0.382c2.068-0.565,3.15-1.547,3.32-4.146
			c0.651-9.995,4.454-18.76,11.436-26.05c0.514-0.537,1.062-1.068,1.681-1.469c0.446-0.29,1.035-0.358,1.56-0.526
			c0.107,0.6,0.414,1.247,0.288,1.792c-0.893,3.844-2.094,7.628-2.772,11.504c-0.987,5.633-1.616,11.328-2.406,17.052
			c4.55,1.689,8.655,2.555,13.056,1.414c1.785-0.463,2.461-1.189,2.565-3.133c0.463-8.558,3.623-16.059,9.423-22.405
			c0.701-0.768,1.459-1.512,2.3-2.116c0.531-0.381,1.266-0.482,1.908-0.708c0.087,0.658,0.334,1.34,0.238,1.969
			c-1.164,7.574-2.386,15.138-3.561,22.709c-0.113,0.726-0.016,1.485-0.016,2.358c4.516,2.246,9.178,2.799,13.952,0.979
			c0.578-0.22,1.035-1.461,1.086-2.259c0.493-7.738,3.198-14.494,8.661-20.067c0.624-0.636,1.296-1.259,2.046-1.725
			c0.562-0.349,1.288-0.436,1.94-0.639c0.121,0.682,0.427,1.39,0.334,2.041c-0.731,5.162-1.606,10.304-2.294,15.471
			c-0.293,2.204-0.245,4.452-0.384,7.313c4.946,0.534,9.758,1.055,14.567,1.574c0.418-2.712,0.591-5.09,1.168-7.368
			c3.038-12.009,14.056-21.859,26.256-23.618c2.98-0.429,3.998-0.145,2.606,3.216c-1.394,3.368-2.4,6.897-3.826,10.25
			c-4.421,10.403-4.649,20.93-1.48,31.696c1.281,4.351,2.195,8.813,3.188,13.246c0.555,2.481-0.098,3.042-2.512,2.363
			c-9.965-2.804-21.929-11.098-24.956-26.868c-4.719,0.439-9.482,0.884-14.689,1.369c0.786,3.713,1.364,6.907,2.157,10.048
			c0.709,2.812,1.698,5.552,2.462,8.352c0.17,0.624-0.084,1.363-0.142,2.049c-0.648-0.193-1.404-0.234-1.929-0.604
			c-6.155-4.357-9.984-10.358-12.002-17.533c-0.364-1.297-0.997-1.757-2.162-2.121c-4.611-1.441-9.084-1.333-13.554,0.925
			c0.812,8.022,3.689,15.528,6.251,23.113c-0.138,0.187-0.274,0.374-0.411,0.56c-0.698-0.276-1.511-0.406-2.078-0.849
			c-6.996-5.479-11.613-12.531-13.617-21.201c-0.319-1.385-0.933-1.925-2.192-2.377c-4.558-1.638-8.942-0.954-13.476,0.677
			c0.902,9.598,4.399,18.457,7.788,27.343c-0.146,0.175-0.293,0.352-0.439,0.527c-0.707-0.303-1.542-0.457-2.102-0.933
			c-7.853-6.682-13.198-14.898-15.188-25.132c-0.35-1.801-2.886-3.768-5.696-3.628c-3.278,0.165-6.525,0.96-9.882,1.497
			c1.047,11.621,5.113,21.751,9.351,31.833c-0.15,0.176-0.3,0.351-0.45,0.527c-0.696-0.312-1.522-0.476-2.067-0.958
			c-8.74-7.759-14.695-17.17-16.724-28.81c-0.296-1.7-0.925-2.512-2.634-2.95c-4.982-1.275-8.374-1.032-12.879,1.336
			c0.697,7.705,2.71,15.146,5.517,22.383c1.374,3.539,2.956,6.996,4.361,10.522c0.29,0.727,0.209,1.601,0.298,2.408
			c-0.744-0.37-1.625-0.592-2.215-1.131c-8.995-8.23-15.11-18.155-17.599-30.186c-0.09-0.438-0.311-0.88-0.282-1.307
			c0.248-3.561-2.242-4.46-4.951-5.1c-3.626-0.856-6.942,0.326-10.135,1.826c-0.419,0.196-0.609,1.404-0.515,2.09
			c1.62,11.686,5.302,22.74,10.371,33.359c0.385,0.807,0.844,1.592,1.107,2.438c0.211,0.68,0.178,1.436,0.252,2.157
			c-0.686-0.314-1.562-0.456-2.028-0.97c-3.197-3.531-6.578-6.941-9.389-10.765c-5.703-7.756-9.062-16.558-10.374-26.102
			c-0.215-1.567-0.857-2.433-2.298-3.146c-4.062-2.008-8.035-1.694-12.129-0.18c-1.351,0.5-1.078,1.339-0.986,2.306
			c1.111,11.705,4.593,22.737,9.45,33.378c1.205,2.642,2.515,5.237,3.694,7.89c0.224,0.5,0.059,1.171,0.073,1.764
			c-0.556-0.198-1.25-0.249-1.648-0.617c-11.988-11.077-19.302-24.658-21.618-40.841c-0.285-1.991-0.725-3.2-3.008-3.5
			c-1.859-0.243-3.633-1.139-5.917-1.903c0,2.756,0.068,5.271-0.012,7.78c-0.305,9.555-1.08,19.062-3.665,28.314
			c-0.636,2.273-1.633,4.469-2.673,6.599c-1.09,2.233-2.997,3.406-5.516,2.77c-4.319-1.091-8.712-2.042-12.869-3.603
			C65.643,78.348,48.26,69.7,32.032,58.821c-2.286-1.532-4.478-3.237-6.549-5.05c-5.868-5.135-6.126-7.521-0.751-13.245
			c3.92-4.173,8.125-8.139,12.57-11.744C51.355,17.384,66.288,7.302,82.91-0.043c2.978-1.316,6.143-2.3,9.311-3.072
			c5.377-1.312,8.341-0.067,10.396,5.075c1.835,4.593,3.315,9.451,4.06,14.329c1.09,7.128,1.387,14.377,2.011,21.576
			C108.763,38.735,108.769,39.613,108.812,40.595z M68.351,41.335c4.803-0.012,8.832-4.014,8.854-8.795
			c0.022-4.794-3.942-8.767-8.802-8.82c-4.932-0.053-9.038,4.01-8.968,8.876C59.503,37.391,63.541,41.348,68.351,41.335z"/>
	</g>
</g>
</svg>
