<?xml version="1.0" encoding="utf-8"?>
<!-- Generator: Adobe Illustrator 16.0.0, SVG Export Plug-In . SVG Version: 6.00 Build 0)  -->
<!DOCTYPE svg PUBLIC "-//W3C//DTD SVG 1.1//EN" "http://www.w3.org/Graphics/SVG/1.1/DTD/svg11.dtd">
<svg version="1.1" id="Layer_1" xmlns="http://www.w3.org/2000/svg" xmlns:xlink="http://www.w3.org/1999/xlink" x="0px" y="0px"
	 width="659.082px" height="45.284px" viewBox="-15.972 -1.118 659.082 45.284"
	 enable-background="new -15.972 -1.118 659.082 45.284" xml:space="preserve">
<g>
	<path d="M631.694,1.33h-1.71V0h4.883v1.33h-1.709v5.509h-1.464V1.33z M638.647,6.079l-1.672-3.687v4.445h-1.425V0h1.823
		l1.957,4.388L641.288,0h1.822v6.839h-1.404V2.394l-1.691,3.687L638.647,6.079L638.647,6.079z"/>
</g>
<g>
	<g>
		<path d="M20.304,7.665L10.666,39.69H7.81L-2.644,3.994H0.11l9.179,32.178l9.587-32.178h2.856l9.587,32.178l9.179-32.178h2.753
			L32.798,39.69h-2.856L20.304,7.665z"/>
	</g>
	<g>
		<path d="M48.253,3.994h16.268V6.39H50.854v13.871h11.983v2.397H50.854v14.635h14.228v2.396H48.253V3.994z"/>
	</g>
	<g>
		<path d="M72.121,3.535c1.326,0,2.244,0.969,2.244,2.295c0,3.06-1.428,4.997-3.06,6.629l-1.377-1.224
			c0.663-0.612,1.887-2.04,2.091-3.468c-1.122-0.102-1.938-1.02-1.938-2.091C70.081,4.504,70.948,3.535,72.121,3.535z"/>
	</g>
	<g>
		<path d="M80.688,3.994h8.21c6.935,0,10.658,4.487,10.658,9.689c0,4.385-2.652,7.853-6.629,9.179l9.077,16.828h-2.907
			l-8.618-16.318h-7.19V39.69h-2.601V3.994z M89.001,21.026c4.793,0,7.802-2.804,7.802-7.343c0-4.232-2.855-7.292-7.955-7.292
			h-5.559v14.635H89.001z"/>
	</g>
	<g>
		<path d="M107.617,3.994h16.268V6.39h-13.667v13.871h11.983v2.397h-11.983v14.635h14.228v2.396h-16.829V3.994z"/>
	</g>
	<g>
		<path d="M164.326,7.665l-9.638,32.024h-2.856L141.378,3.994h2.753l9.179,32.178l9.587-32.178h2.856l9.587,32.178l9.179-32.178
			h2.753L176.819,39.69h-2.856L164.326,7.665z"/>
	</g>
	<g>
		<path d="M192.275,3.994h2.601V39.69h-2.601V3.994z"/>
	</g>
	<g>
		<path d="M203.545,3.994h2.601v33.299h14.228v2.396h-16.829V3.994z"/>
	</g>
	<g>
		<path d="M226.292,3.994h6.323c12.392,0,19.225,6.68,19.225,17.848c0,12.035-7.19,17.848-19.225,17.848h-6.323V3.994z
			 M233.686,37.293c9.485,0,15.502-5.303,15.502-15.451c0-9.638-6.018-15.452-15.502-15.452h-4.793v30.903H233.686z"/>
	</g>
	<g>
		<path d="M275.658,26.891l-4.845,12.799h-2.651l13.667-35.696h2.55l13.667,35.696h-2.652l-4.844-12.799H275.658z M283.103,6.951
			l-6.527,17.543h13.055L283.103,6.951z"/>
	</g>
	<g>
		<path d="M303.147,3.994h9.332c5.763,0,9.842,3.723,9.842,9.128c0,3.723-2.193,6.579-4.794,7.853
			c3.366,1.174,6.018,4.386,6.018,8.721c0,5.559-4.334,9.994-10.25,9.994h-10.148V3.994z M312.785,19.904
			c3.978,0,6.833-2.957,6.833-6.782c0-3.875-2.805-6.731-6.833-6.731h-7.037v13.513H312.785z M312.479,37.344
			c4.845,0,8.363-2.754,8.363-7.648c0-4.896-3.723-7.445-8.465-7.445h-6.629v15.094H312.479z"/>
	</g>
	<g>
		<path d="M346.037,3.331c10.097,0,18.052,8.057,18.052,18.511c0,10.505-8.006,18.512-18.104,18.512
			c-10.046,0-18.001-7.854-18.001-18.512C327.984,11.286,335.991,3.331,346.037,3.331z M346.037,37.906
			c8.618,0,15.349-6.782,15.349-16.063c0-9.179-6.73-16.063-15.349-16.063c-8.67,0-15.35,6.884-15.35,16.063
			C330.688,31.123,337.367,37.906,346.037,37.906z"/>
	</g>
	<g>
		<path d="M370.314,27.145V3.994h2.601v23.1c0,6.63,3.468,10.812,10.25,10.812s10.25-4.182,10.25-10.812v-23.1h2.601v23.151
			c0,8.007-4.641,13.209-12.851,13.209C374.954,40.354,370.314,35.152,370.314,27.145z"/>
	</g>
	<g>
		<path d="M411.47,6.39h-10.25V3.994h23.101V6.39h-10.25V39.69h-2.601V6.39z"/>
	</g>
	<g>
		<path d="M443.905,3.994h16.267V6.39h-13.666v14.125h11.983v2.396h-11.983V39.69h-2.601V3.994z"/>
	</g>
	<g>
		<path d="M468.537,26.891l-4.844,12.799h-2.652l13.667-35.696h2.55l13.666,35.696h-2.651l-4.845-12.799H468.537z M475.982,6.951
			l-6.527,17.543h13.055L475.982,6.951z"/>
	</g>
	<g>
		<path d="M496.027,3.994h8.21c6.936,0,10.658,4.487,10.658,9.689c0,4.385-2.652,7.853-6.63,9.179l9.077,16.828h-2.906
			l-8.618-16.318h-7.19V39.69h-2.601V3.994z M504.339,21.026c4.794,0,7.803-2.804,7.803-7.343c0-4.232-2.856-7.292-7.955-7.292
			h-5.559v14.635H504.339z"/>
	</g>
	<g>
		<path d="M540.344,33.469L554.47,3.994h3.264V39.69h-2.499V7.819l-13.514,28.455h-2.754L525.453,7.819V39.69h-2.498V3.994h3.264
			L540.344,33.469z"/>
	</g>
	<g>
		<path d="M566.406,3.994h16.267V6.39h-13.666v13.871h11.983v2.397h-11.983v14.635h14.228v2.396h-16.828V3.994z"/>
	</g>
	<g>
		<path d="M590.427,3.994h6.323c12.392,0,19.225,6.68,19.225,17.848c0,12.035-7.19,17.848-19.225,17.848h-6.323V3.994z
			 M597.82,37.293c9.485,0,15.503-5.303,15.503-15.451c0-9.638-6.018-15.452-15.503-15.452h-4.793v30.903H597.82z"/>
	</g>
</g>
<g>
	<path d="M-15.972,5.46c0-4.692,2.346-6.579,5.916-6.579h0.816v2.244h-0.561c-3.06,0-3.621,1.989-3.621,4.59v31.616
		c0,2.602,0.561,4.59,3.621,4.59h0.561v2.244h-0.816c-3.57,0-5.916-1.887-5.916-6.578V5.46z"/>
</g>
<g>
	<path d="M627.792,37.587c0,4.691-2.346,6.578-5.915,6.578h-0.816v-2.244h0.561c3.061,0,3.621-1.988,3.621-4.59V5.715
		c0-2.601-0.561-4.59-3.621-4.59h-0.561v-2.244h0.816c3.569,0,5.915,1.887,5.915,6.579V37.587z"/>
</g>
</svg>
