<?xml version="1.0" encoding="utf-8"?>
<!-- Generator: Adobe Illustrator 16.0.0, SVG Export Plug-In . SVG Version: 6.00 Build 0)  -->
<!DOCTYPE svg PUBLIC "-//W3C//DTD SVG 1.1//EN" "http://www.w3.org/Graphics/SVG/1.1/DTD/svg11.dtd">
<svg version="1.1" id="Layer_1" xmlns="http://www.w3.org/2000/svg" xmlns:xlink="http://www.w3.org/1999/xlink" x="0px" y="0px"
	 width="720px" height="720px" viewBox="0 0 720 720" enable-background="new 0 0 720 720" xml:space="preserve">
<circle cx="352.75" cy="349.28" r="285.07"/>
<circle fill="#FFFFFF" stroke="#FFFFFF" stroke-width="14" stroke-miterlimit="10" cx="352.75" cy="349.28" r="265.07"/>
<path d="M-1097.845-281.885c-7.873-0.288-15.701-1.565-23.568-2.158c-8.273-0.626-16.564-0.979-25.527-1.486
	c2.354,6.873,4.316,12.604,6.275,18.33c-0.496,0.232-0.992,0.465-1.49,0.694c0.936,0.08,1.871,0.161,3.232,0.278
	c-0.293,2.257-0.197,4.575-0.939,6.586c-1.18,3.192-0.844,5.544,1.299,8.385c1.857,2.454,2.373,5.896,3.619,8.841
	c1.008,2.37,1.645,5.361,3.457,6.84c4.6,3.749,5.512,8.262,4.582,13.658c-0.281,1.633-0.898,3.558-0.326,4.911
	c1.422,3.361-0.26,5.173-2.531,6.967c-2.428,0-4.852,0-7.279,0c-0.586-0.296-1.166-0.833-1.762-0.854
	c-16.705-0.551-30.658-7.69-43.492-17.784c-13.607-10.703-21.357-26.274-32.686-38.852c-6.59-7.317-11.58-15.871-23.146-17.831
	c-14.459-2.455-28.461-7.488-42.801-10.789c-4.193-0.959-3.959-2.399-2.359-5.053c-8.82-0.838-17.351-1.523-25.855-2.492
	c-7.611-0.867-15.184-2.05-22.771-3.099c-6.58-0.911-13.361-1.108-19.688-2.912c-8.955-2.553-17.5-6.503-26.354-9.468
	c-12.1-4.04-24.393-7.511-36.469-11.618c-7.533-2.559-14.789-5.937-22.238-8.768c-3.406-1.291-7.768-1.24-10.297-3.42
	c-4.088-3.521-7.02-8.385-10.439-12.68c0-4.508,0-9.015,0-13.522c4.863-9.704,10.904-12.92,19.148-10.456
	c3.879,1.157,7.881,1.907,11.826,2.843c0.162-0.47,0.326-0.939,0.49-1.409c-1.934-1.79-3.848-3.597-5.799-5.362
	c-5.092-4.618-5.879-9.252-1.229-14.533c7.711-8.749,15.666-17.276,25.588-23.772c8.566-5.604,16.732-11.821,25.062-17.785
	c7.656-5.484,13.129-13.894,22.686-16.848c8.885-2.747,17.834-5.324,26.584-8.452c7.652-2.733,15.014-6.276,22.6-9.196
	c9.934-3.826,19.953-7.433,29.96-11.051c8.26-2.987,16.373-6.725,24.889-8.591c15.906-3.493,32.018-6.137,48.125-8.613
	c11.619-1.79,23.377-2.688,35.059-4.093c4.359-0.524,8.697-1.277,13.02-2.073c7.166-1.321,14.389-4.212,21.451-3.839
	c13.783,0.732,26.777-3.944,40.238-4.189c2.461-0.045,5.057-0.439,7.635-0.579c-47.096-64.443-123.236-106.316-209.166-106.316
	c-142.996,0-258.92,115.923-258.92,258.92c0,142.996,115.924,258.92,258.92,258.92c113.578,0,210.066-73.138,244.964-174.881
	C-1068.796-280.941-1083.323-281.348-1097.845-281.885z"/>
<g>
	<path d="M-324.432-245.81c-5.137,1.37-7.891-2.544-11.27-4.937c-4.133-2.922-7.867-6.498-12.234-8.972
		c-8.578-4.865-14.482-12.494-19.365-20.349c-10.139-16.305-18.904-33.46-28.422-50.162c-0.986-1.732-3.035-3.476-4.916-3.967
		c-4.961-1.289-10.248-1.398-15.143-2.86c-24.406-7.276-49.788-9.019-74.665-13.607c-5.988-1.103-11.986-2.649-17.65-4.842
		c-4.43-1.714-8.186-5.089-12.531-7.1c-6.039-2.792-12.346-5.013-18.543-7.462c-3.117-1.228-6.322-2.269-9.355-3.677
		c-2.084-0.97-3.83-2.669-5.92-3.624c-5.057-2.324-11.285-3.256-15.131-6.813c-8.777-8.126-19.42-12.428-29.695-17.751
		c-4.975-2.578-9.342-6.642-13.375-10.648c-4.26-4.225-7.715-9.252-11.693-13.779c-1.072-1.222-2.758-1.909-4.18-2.816
		c-5.562-3.527-11.129-7.047-16.695-10.57c0-1.958,0-3.911,0-5.868c2.309-5.448,6.424-6.608,12.047-5.997
		c5.605,0.606,11.334,0.292,16.996,0.048c2.049-0.086,4.062-1.126,6.953-1.986c-3.824-6.493-6.352-12.485-10.393-17.179
		c-4.189-4.87-10.084-8.231-14.736-12.763c-1.936-1.891-2.912-5.018-3.619-7.763c-0.219-0.855,2.164-3.476,2.879-3.304
		c7.125,1.709,12.439-0.788,16.969-6.149c0.91-1.075,2.734-1.366,4.113-2.062c3.711-1.872,7.432-3.715,11.1-5.663
		c3.891-2.068,7.652-4.384,11.594-6.346c14.959-7.448,29.963-14.81,44.963-22.177c13.434-6.603,26.826-13.288,40.338-19.724
		c23.037-10.986,46.981-18.387,72.86-18.024c18.174,0.258,36.326,0.291,54.078-4.684c6.799-1.91,14.938-1.538,20.387-5.252
		c12.23-8.336,26.213-9.311,39.717-12.175c11.447-2.426,23.203-3.457,34.854-4.841c7.479-0.885,15.004-1.359,22.51-2.021
		c-46.863-66.509-124.25-109.963-211.794-109.963c-142.996,0-258.92,115.922-258.92,258.919s115.924,258.919,258.92,258.919
		c56.179,0,108.175-17.9,150.61-48.298C-323.387-244.846-324.065-245.909-324.432-245.81z"/>
	<path d="M-248.34-333.078c-14.006,5.256-28.01,10.8-43.59,9.63c-5.725-0.435-11.586,0.459-17.328,1.175
		c-1.502,0.187-3.922,1.876-4.016,3.037c-0.596,7.118-0.725,14.285-0.85,21.438c-0.092,5.318,1.062,10.881-0.109,15.923
		c-2.674,11.526-5.633,22.903-4.861,34.888c0.004,0.065-0.004,0.131-0.006,0.197c31.189-23.184,56.975-53.223,75.146-87.884
		C-245.418-334.154-246.881-333.626-248.34-333.078z"/>
</g>
<path d="M-609.613,233.417c-3.671-1.029-7.479-2.791-11.103-2.531c-11.553,0.832-23.021,3.143-34.576,3.61
	c-16.211,0.653-32.468,0.165-48.707,0.165c-12.924,0-25.85,0-37.824,0c4.356,1.807,9.825,4.076,15.295,6.348
	c-0.221,0.863-0.442,1.725-0.666,2.59c-3.125-0.203-6.299-0.848-9.373-0.528c-9.468,0.989-18.773,1.62-28.172-1.142
	c-15.112-4.438-30.406-8.249-45.584-12.463c-9.818-2.722-19.483-6.055-29.385-8.406c-5.699-1.353-11.736-1.256-17.613-1.867
	c-12.729-1.321-25.453-2.678-38.179-4.02c-1.675-0.177-3.372-0.252-5.021-0.569c-7.723-1.483-15.429-3.06-23.147-4.562
	c-12.991-2.527-26.253-4.108-38.923-7.75c-19.118-5.494-35.604-15.658-47.451-32.246c0-3.418,0-6.838,0-10.255
	c6.889-0.945,13.774-1.891,20.959-2.875c-3.418-2.076-6.513-5.309-9.979-5.77c-6.39-0.849-5.1-4.947-4.654-8.526
	c0.387-3.074,1.929-5.987,2.795-9.021c4.027-14.096,14.924-22.757,25.686-31.048c12.169-9.377,24.975-18.022,38.037-26.13
	c12.322-7.647,24.93-15.084,38.139-20.998c20.879-9.347,43.062-14.613,65.896-16.658c17.149-1.536,34.316-2.849,51.492-4.042
	c5.434-0.38,10.936,0.2,16.376-0.142c4.255-0.27,8.464-1.288,12.69-1.97c4.445,0,8.891,0,13.334,0
	c0.758,0.333,1.501,0.916,2.277,0.963c6.604,0.417,13.217,0.693,19.821,1.102c5.922,0.37,11.854,0.693,17.751,1.328
	c10.705,1.149,21.383,2.573,32.085,3.77c10.569,1.183,21.165,2.135,31.73,3.358c9.612,1.111,19.216,2.3,28.817,3.509
	c-40.637-89.811-131.029-152.298-236.016-152.298c-142.996,0-258.92,115.922-258.92,258.919
	c0,142.997,115.924,258.919,258.92,258.919c113.686,0,210.253-73.275,245.066-175.17
	C-601.69,235.786-605.638,234.529-609.613,233.417z"/>
<path d="M-1283.05,482.551c-4.41-1.111-8.564-3.281-13.41-2.491c-1.996,0.325-4.158-0.362-6.244-0.597
	c-7.424-0.834-14.879-1.456-22.262-2.568c-6.932-1.043-13.814-2.467-20.662-3.98c-6.365-1.404-12.604-3.413-18.992-4.681
	c-10.861-2.155-21.775-4.065-32.707-5.836c-10.625-1.718-20.492-5.524-30.012-10.335c-3.32-1.678-6.43-3.775-9.635-5.682
	c-1.658-0.988-3.859-1.602-4.865-3.045c-2.27-3.246-5.547-3.464-8.836-3.917c-4.281-0.591-8.596-0.954-12.863-1.626
	c-11.461-1.799-19.859-10.182-30.318-14.254c-6.795-2.646-13.121-6.51-19.629-9.882c-5.434-2.815-10.879-5.621-16.215-8.62
	c-1.867-1.05-3.271-2.929-5.146-3.961c-4.42-2.434-8.928-4.733-13.523-6.814c-6.459-2.922-10.883-8.015-15.592-13.082
	c-10.732-11.553-22.02-22.59-32.979-33.938c-4.447-4.604-9.93-8.408-12.078-14.891c0-0.265,0-0.533,0-0.798
	c0.246-0.271,0.602-0.502,0.721-0.823c2.416-6.513,4.789-13.042,7.223-19.549c0.268-0.717,0.748-1.448,1.326-1.941
	c4.709-4.008,9.375-8.075,14.242-11.882c2.234-1.749,4.738-3.519,7.404-4.244c2.316-0.631,2.779-1.869,3.838-3.638
	c3.811-6.37,5.008-10.213,14.025-7.324c3.43,1.099,5.545,0.577,8.422-1.43c6.467-4.508,13.373-8.384,20.117-12.487
	c4.467-2.718,7.949-6.979,12.027-9.662c10.395-6.838,18.705-15.41,26.396-24.892c4.406-5.432,9.906-9.558,16.32-12.367
	c8.775-3.839,18.24-6.562,26.229-11.627c8.787-5.57,17.527-9.923,27.877-11.461c4.773-0.709,9.207-3.444,13.949-4.675
	c9.549-2.48,19.225-4.47,28.809-6.829c12.396-3.052,24.752-6.279,37.133-9.403c1.377-0.346,2.789-0.571,4.199-0.75
	c5.896-0.754,11.953-0.865,17.664-2.333c10.758-2.763,21.725-3.122,32.658-4.11c6.736-0.61,13.764-0.634,20.066-2.718
	c4.984-1.647,9.807-1.549,14.574-1.047c-46.867-46.951-111.662-76-183.244-76c-142.996,0-258.92,115.922-258.92,258.919
	s115.924,258.919,258.92,258.919c94.252,0,176.732-50.367,222.02-125.648C-1237.699,482.551-1260.376,482.551-1283.05,482.551z"/>
<path d="M548.475,519.879c-24.5-2.311-49.012-4.693-73.393-7.988c-12.512-1.693-24.982-4.611-37.064-8.305
	c-15.756-4.811-31.137-10.865-46.627-16.527c-11.186-4.09-22.555-7.834-32.078-15.434c-4.993-3.986-10.046-6.82-16.908-8.162
	c-14.09-2.746-27.867-7.514-40.686-14.348c-5.453-2.906-10.568-6.449-15.939-9.52c-11.15-6.379-22.782-12.014-33.449-19.109
	c-12.321-8.193-23.96-17.445-35.603-26.609c-5.136-4.043-11.334-7.088-13.983-13.914c-1.501-3.863-4.068-7.312-6.156-10.947
	c0-0.643,0-1.281,0-1.922c0.42-1.16,0.85-2.318,1.254-3.482c4.146-11.939,5.312-16.172,19.834-16.102
	c0.246,0.002,0.494-0.352,1.055-0.778c-0.16-1.197-0.459-2.578-0.512-3.973c-0.297-7.794-1.865-16.01,5.762-21.614
	c3.053-2.24,6.617-3.798,9.615-6.099c6.103-4.684,15.596-5.657,17.111-15.511c0.164-1.066,1.422-2.199,2.453-2.856
	c4.045-2.577,7.926-5.872,12.379-7.252c8.949-2.769,18.211-4.54,27.382-6.559c4.933-1.084,10.224-1.09,14.856-2.877
	c11.259-4.346,22.289-9.304,33.285-14.296c6.377-2.893,12.317-6.792,18.787-9.423c13.675-5.556,27.664-10.34,41.355-15.868
	c27.016-10.912,54.873-18.678,83.637-23.22c2.342-0.367,4.707-0.697,7.068-0.797c4.43-0.186,8.561-4.354,8.521-8.884
	c-0.049-5.638-0.621-11.389,3.957-16.272c1.646,1.376,3.016,2.697,4.557,3.773c3.168,2.213,5.861,1.179,6.588-2.54
	c0.518-2.632,0.662-5.337,1.199-7.963c1.564-7.652,5.062-8.745,11.135-3.563c7.182,6.123,16.623,5.173,21.889-1.808
	C502.291,124.735,432.463,90.36,354.6,90.36c-142.996,0-258.92,115.922-258.92,258.92c0,142.996,115.924,258.919,258.92,258.919
	c77.621,0,147.255-34.166,194.71-88.27C549.033,519.91,548.752,519.904,548.475,519.879z"/>
</svg>
