<?xml version="1.0" encoding="utf-8"?>
<!-- Generator: Adobe Illustrator 16.0.0, SVG Export Plug-In . SVG Version: 6.00 Build 0)  -->
<!DOCTYPE svg PUBLIC "-//W3C//DTD SVG 1.1//EN" "http://www.w3.org/Graphics/SVG/1.1/DTD/svg11.dtd">
<svg version="1.1" id="Layer_1" xmlns="http://www.w3.org/2000/svg" xmlns:xlink="http://www.w3.org/1999/xlink" x="0px" y="0px"
	 width="577.771px" height="177.018px" viewBox="0 0 577.771 177.018" enable-background="new 0 0 577.771 177.018"
	 xml:space="preserve">
<g>
	<g>
		<path fill-rule="evenodd" clip-rule="evenodd" d="M260.275,18.142c3.182,1.12,4.33,3.411,4.289,6.713
			c-0.106,8.608-0.008,17.218-0.068,25.827c-0.008,1.182,0.303,1.67,1.452,2.023c14.492,4.448,28.725,9.573,42.243,16.515
			c11.941,6.131,22.895,13.625,32.229,23.355c10.205,10.638,17.522,23.101,23.186,36.614c4.743,11.317,8.352,23.012,11.55,34.841
			c0.723,2.674-0.22,5.124-2.397,6.362c-2.171,1.233-4.771,0.826-6.715-1.13c-7.636-7.685-15.94-14.539-25.102-20.338
			c-15.711-9.946-32.781-16.161-51.223-18.554c-7.715-1.002-15.469-1.176-23.237-0.808c-0.614,0.029-1.226,0.122-1.954,0.197
			c0,0.604,0,1.131,0,1.657c0,8.654,0.022,17.308-0.011,25.962c-0.015,3.996-3.652,6.639-7.212,5.264
			c-0.727-0.28-1.418-0.764-2.003-1.29c-24.278-21.896-48.547-43.803-72.791-65.737c-1.067-0.965-1.882-2.208-2.814-3.321
			c0-1.16,0-2.32,0-3.48c1.025-0.918,2.116-1.775,3.056-2.773c0.961-1.021,1.641-2.329,2.671-3.26
			c22.779-20.583,45.584-41.139,68.41-61.671c1.234-1.111,2.683-1.984,4.031-2.968C258.669,18.142,259.473,18.142,260.275,18.142z"
			/>
	</g>
</g>
</svg>
