<svg xmlns="http://www.w3.org/2000/svg" width="720" height="720" viewBox="0 0 720 720"><circle cx="352.8" cy="349.3" r="285.1"/><circle cx="352.8" cy="349.3" r="265.1" style="fill:#FFF;stroke-width:10;stroke:#FFF"/><path d="M552 432c-7.9-0.3-15.7-1.6-23.6-2.2 -8.3-0.6-16.6-1-25.5-1.5 2.4 6.9 4.3 12.6 6.3 18.3 -0.5 0.2-1 0.5-1.5 0.7 0.9 0.1 1.9 0.2 3.2 0.3 -0.3 2.3-0.2 4.6-0.9 6.6 -1.2 3.2-0.8 5.5 1.3 8.4 1.9 2.5 2.4 5.9 3.6 8.8 1 2.4 1.6 5.4 3.5 6.8 4.6 3.7 5.5 8.3 4.6 13.7 -0.3 1.6-0.9 3.6-0.3 4.9 1.4 3.4-0.3 5.2-2.5 7 -2.4 0-4.9 0-7.3 0 -0.6-0.3-1.2-0.8-1.8-0.9 -16.7-0.6-30.7-7.7-43.5-17.8 -13.6-10.7-21.4-26.3-32.7-38.9 -6.6-7.3-11.6-15.9-23.1-17.8 -14.5-2.5-28.5-7.5-42.8-10.8 -4.2-1-4-2.4-2.4-5.1 -8.8-0.8-17.4-1.5-25.9-2.5 -7.6-0.9-15.2-2-22.8-3.1 -6.6-0.9-13.4-1.1-19.7-2.9 -9-2.6-17.5-6.5-26.4-9.5 -12.1-4-24.4-7.5-36.5-11.6 -7.5-2.6-14.8-5.9-22.2-8.8 -3.4-1.3-7.8-1.2-10.3-3.4 -4.1-3.5-7-8.4-10.4-12.7 0-4.5 0-9 0-13.5 4.9-9.7 10.9-12.9 19.1-10.5 3.9 1.2 7.9 1.9 11.8 2.8 0.2-0.5 0.3-0.9 0.5-1.4 -1.9-1.8-3.8-3.6-5.8-5.4 -5.1-4.6-5.9-9.3-1.2-14.5 7.7-8.7 15.7-17.3 25.6-23.8 8.6-5.6 16.7-11.8 25.1-17.8 7.7-5.5 13.1-13.9 22.7-16.8 8.9-2.7 17.8-5.3 26.6-8.5 7.7-2.7 15-6.3 22.6-9.2 9.9-3.8 20-7.4 30-11.1 8.3-3 16.4-6.7 24.9-8.6 15.9-3.5 32-6.1 48.1-8.6 11.6-1.8 23.4-2.7 35.1-4.1 4.4-0.5 8.7-1.3 13-2.1 7.2-1.3 14.4-4.2 21.5-3.8 13.8 0.7 26.8-3.9 40.2-4.2 2.5 0 5.1-0.4 7.6-0.6C512.7 132.2 436.5 90.4 350.6 90.4c-143 0-258.9 115.9-258.9 258.9 0 143 115.9 258.9 258.9 258.9 113.6 0 210.1-73.1 245-174.9C581 432.9 566.5 432.5 552 432z"/></svg>