<?xml version="1.0" encoding="utf-8"?>
<!-- Generator: Adobe Illustrator 16.0.0, SVG Export Plug-In . SVG Version: 6.00 Build 0)  -->
<!DOCTYPE svg PUBLIC "-//W3C//DTD SVG 1.1//EN" "http://www.w3.org/Graphics/SVG/1.1/DTD/svg11.dtd">
<svg version="1.1" id="Layer_1" xmlns="http://www.w3.org/2000/svg" xmlns:xlink="http://www.w3.org/1999/xlink" x="0px" y="0px"
	 width="720px" height="720px" viewBox="0 0 720 720" enable-background="new 0 0 720 720" xml:space="preserve">
<circle cx="352.75" cy="349.28" r="285.07"/>
<circle fill="#FFFFFF" stroke="#FFFFFF" stroke-width="14" stroke-miterlimit="10" cx="352.75" cy="349.28" r="265.07"/>
<path d="M551.986,431.972c-7.873-0.288-15.701-1.565-23.568-2.158c-8.273-0.626-16.564-0.979-25.527-1.486
	c2.354,6.873,4.316,12.604,6.275,18.33c-0.496,0.232-0.992,0.465-1.49,0.694c0.936,0.08,1.871,0.161,3.232,0.278
	c-0.293,2.257-0.197,4.575-0.939,6.586c-1.18,3.192-0.844,5.544,1.299,8.385c1.857,2.454,2.373,5.896,3.619,8.841
	c1.008,2.37,1.645,5.361,3.457,6.84c4.6,3.749,5.512,8.262,4.582,13.658c-0.281,1.633-0.898,3.558-0.326,4.911
	c1.422,3.361-0.26,5.173-2.531,6.967c-2.428,0-4.852,0-7.279,0c-0.586-0.296-1.166-0.833-1.762-0.854
	c-16.705-0.551-30.658-7.69-43.492-17.784c-13.607-10.703-21.357-26.274-32.686-38.852c-6.59-7.317-11.58-15.871-23.146-17.831
	c-14.459-2.455-28.461-7.488-42.801-10.789c-4.193-0.959-3.959-2.399-2.359-5.053c-8.82-0.838-17.351-1.523-25.855-2.492
	c-7.611-0.867-15.184-2.05-22.771-3.099c-6.58-0.911-13.361-1.108-19.688-2.912c-8.955-2.553-17.5-6.503-26.354-9.468
	c-12.1-4.04-24.393-7.511-36.469-11.618c-7.533-2.559-14.789-5.937-22.238-8.768c-3.406-1.291-7.768-1.24-10.297-3.42
	c-4.088-3.521-7.02-8.385-10.439-12.68c0-4.508,0-9.015,0-13.522c4.863-9.704,10.904-12.92,19.148-10.456
	c3.879,1.157,7.881,1.907,11.826,2.843c0.162-0.47,0.326-0.939,0.49-1.409c-1.934-1.79-3.848-3.597-5.799-5.362
	c-5.092-4.618-5.879-9.252-1.229-14.533c7.711-8.749,15.666-17.276,25.588-23.772c8.566-5.604,16.732-11.821,25.062-17.785
	c7.656-5.484,13.129-13.894,22.686-16.848c8.885-2.747,17.834-5.324,26.584-8.452c7.652-2.733,15.014-6.276,22.6-9.196
	c9.934-3.826,19.953-7.433,29.96-11.051c8.26-2.987,16.373-6.725,24.889-8.591c15.906-3.493,32.018-6.137,48.125-8.613
	c11.619-1.79,23.377-2.688,35.059-4.093c4.359-0.524,8.697-1.277,13.02-2.073c7.166-1.321,14.389-4.212,21.451-3.839
	c13.783,0.732,26.777-3.944,40.238-4.189c2.461-0.045,5.057-0.439,7.635-0.579C512.67,132.233,436.529,90.36,350.6,90.36
	c-142.996,0-258.92,115.923-258.92,258.92c0,142.996,115.924,258.92,258.92,258.92c113.578,0,210.066-73.138,244.964-174.881
	C581.035,432.915,566.508,432.509,551.986,431.972z"/>
</svg>
