<svg xmlns="http://www.w3.org/2000/svg" width="720" height="720" viewBox="0 0 720 720"><circle cx="352.8" cy="349.3" r="285.1"/><circle cx="352.8" cy="349.3" r="265.1" style="fill:#FFF;stroke-width:10;stroke:#FFF"/><path d="M548.5 519.9c-24.5-2.3-49-4.7-73.4-8 -12.5-1.7-25-4.6-37.1-8.3 -15.8-4.8-31.1-10.9-46.6-16.5 -11.2-4.1-22.6-7.8-32.1-15.4 -5-4-10-6.8-16.9-8.2 -14.1-2.7-27.9-7.5-40.7-14.3 -5.5-2.9-10.6-6.4-15.9-9.5 -11.1-6.4-22.8-12-33.4-19.1 -12.3-8.2-24-17.4-35.6-26.6 -5.1-4-11.3-7.1-14-13.9 -1.5-3.9-4.1-7.3-6.2-10.9 0-0.6 0-1.3 0-1.9 0.4-1.2 0.9-2.3 1.3-3.5 4.1-11.9 5.3-16.2 19.8-16.1 0.2 0 0.5-0.4 1.1-0.8 -0.2-1.2-0.5-2.6-0.5-4 -0.3-7.8-1.9-16 5.8-21.6 3.1-2.2 6.6-3.8 9.6-6.1 6.1-4.7 15.6-5.7 17.1-15.5 0.2-1.1 1.4-2.2 2.5-2.9 4-2.6 7.9-5.9 12.4-7.3 8.9-2.8 18.2-4.5 27.4-6.6 4.9-1.1 10.2-1.1 14.9-2.9 11.3-4.3 22.3-9.3 33.3-14.3 6.4-2.9 12.3-6.8 18.8-9.4 13.7-5.6 27.7-10.3 41.4-15.9 27-10.9 54.9-18.7 83.6-23.2 2.3-0.4 4.7-0.7 7.1-0.8 4.4-0.2 8.6-4.4 8.5-8.9 0-5.6-0.6-11.4 4-16.3 1.6 1.4 3 2.7 4.6 3.8 3.2 2.2 5.9 1.2 6.6-2.5 0.5-2.6 0.7-5.3 1.2-8 1.6-7.7 5.1-8.7 11.1-3.6 7.2 6.1 16.6 5.2 21.9-1.8C502.3 124.7 432.5 90.4 354.6 90.4c-143 0-258.9 115.9-258.9 258.9 0 143 115.9 258.9 258.9 258.9 77.6 0 147.3-34.2 194.7-88.3C549 519.9 548.8 519.9 548.5 519.9z"/></svg>