<?xml version="1.0" encoding="utf-8"?>
<!-- Generator: Adobe Illustrator 16.0.0, SVG Export Plug-In . SVG Version: 6.00 Build 0)  -->
<!DOCTYPE svg PUBLIC "-//W3C//DTD SVG 1.1//EN" "http://www.w3.org/Graphics/SVG/1.1/DTD/svg11.dtd">
<svg version="1.1" id="Layer_1" xmlns="http://www.w3.org/2000/svg" xmlns:xlink="http://www.w3.org/1999/xlink" x="0px" y="0px"
	 width="720px" height="720px" viewBox="0 0 720 720" enable-background="new 0 0 720 720" xml:space="preserve">
<circle cx="352.75" cy="349.28" r="285.07"/>
<circle fill="#FFFFFF" stroke="#FFFFFF" stroke-width="14" stroke-miterlimit="10" cx="352.75" cy="349.28" r="265.07"/>
<path d="M548.475,519.879c-24.5-2.311-49.012-4.693-73.393-7.988c-12.512-1.693-24.982-4.611-37.064-8.305
	c-15.756-4.811-31.137-10.865-46.627-16.527c-11.186-4.09-22.555-7.834-32.078-15.434c-4.993-3.986-10.046-6.82-16.908-8.162
	c-14.09-2.746-27.867-7.514-40.686-14.348c-5.453-2.906-10.568-6.449-15.939-9.52c-11.15-6.379-22.782-12.014-33.449-19.109
	c-12.321-8.193-23.96-17.445-35.603-26.609c-5.136-4.043-11.334-7.088-13.983-13.914c-1.501-3.863-4.068-7.312-6.156-10.947
	c0-0.643,0-1.281,0-1.922c0.42-1.16,0.85-2.318,1.254-3.482c4.146-11.939,5.312-16.172,19.834-16.102
	c0.246,0.002,0.494-0.352,1.055-0.778c-0.16-1.197-0.459-2.578-0.512-3.973c-0.297-7.794-1.865-16.01,5.762-21.614
	c3.053-2.24,6.617-3.798,9.615-6.099c6.103-4.684,15.596-5.657,17.111-15.511c0.164-1.066,1.422-2.199,2.453-2.856
	c4.045-2.577,7.926-5.872,12.379-7.252c8.949-2.769,18.211-4.54,27.382-6.559c4.933-1.084,10.224-1.09,14.856-2.877
	c11.259-4.346,22.289-9.304,33.285-14.296c6.377-2.893,12.317-6.792,18.787-9.423c13.675-5.556,27.664-10.34,41.355-15.868
	c27.016-10.912,54.873-18.678,83.637-23.22c2.342-0.367,4.707-0.697,7.068-0.797c4.43-0.186,8.561-4.354,8.521-8.884
	c-0.049-5.638-0.621-11.389,3.957-16.272c1.646,1.376,3.016,2.697,4.557,3.773c3.168,2.213,5.861,1.179,6.588-2.54
	c0.518-2.632,0.662-5.337,1.199-7.963c1.564-7.652,5.062-8.745,11.135-3.563c7.182,6.123,16.623,5.173,21.889-1.808
	C502.291,124.735,432.463,90.36,354.6,90.36c-142.996,0-258.92,115.922-258.92,258.92c0,142.996,115.924,258.919,258.92,258.919
	c77.621,0,147.255-34.166,194.71-88.27C549.033,519.91,548.752,519.904,548.475,519.879z"/>
</svg>
