<?xml version="1.0" encoding="utf-8"?>
<!-- Generator: Adobe Illustrator 16.0.0, SVG Export Plug-In . SVG Version: 6.00 Build 0)  -->
<!DOCTYPE svg PUBLIC "-//W3C//DTD SVG 1.1//EN" "http://www.w3.org/Graphics/SVG/1.1/DTD/svg11.dtd">
<svg version="1.1" id="Layer_1" xmlns="http://www.w3.org/2000/svg" xmlns:xlink="http://www.w3.org/1999/xlink" x="0px" y="0px"
	 width="720px" height="720px" viewBox="0 0 720 720" enable-background="new 0 0 720 720" xml:space="preserve">
<circle cx="352.75" cy="349.28" r="285.07"/>
<circle fill="#FFFFFF" stroke="#FFFFFF" stroke-width="14" stroke-miterlimit="10" cx="352.75" cy="349.28" r="265.07"/>
<path d="M504.592,482.551c-4.41-1.111-8.564-3.281-13.41-2.491c-1.996,0.325-4.158-0.362-6.244-0.597
	c-7.424-0.834-14.879-1.456-22.262-2.568c-6.932-1.043-13.814-2.467-20.662-3.98c-6.365-1.404-12.604-3.413-18.992-4.681
	c-10.861-2.155-21.775-4.065-32.707-5.836c-10.625-1.718-20.492-5.524-30.012-10.335c-3.32-1.678-6.43-3.775-9.634-5.682
	c-1.658-0.988-3.859-1.602-4.865-3.045c-2.27-3.246-5.547-3.464-8.836-3.917c-4.281-0.591-8.596-0.954-12.863-1.626
	c-11.461-1.799-19.859-10.182-30.318-14.254c-6.795-2.646-13.121-6.51-19.629-9.882c-5.435-2.815-10.88-5.621-16.215-8.62
	c-1.867-1.05-3.271-2.929-5.146-3.961c-4.421-2.434-8.928-4.733-13.524-6.814c-6.458-2.922-10.882-8.015-15.591-13.082
	c-10.732-11.553-22.021-22.59-32.979-33.938c-4.446-4.604-9.929-8.408-12.077-14.891c0-0.265,0-0.533,0-0.798
	c0.245-0.271,0.602-0.502,0.721-0.823c2.415-6.513,4.788-13.042,7.223-19.549c0.268-0.717,0.748-1.448,1.326-1.941
	c4.708-4.008,9.374-8.075,14.241-11.882c2.234-1.749,4.739-3.519,7.405-4.244c2.316-0.631,2.779-1.869,3.838-3.638
	c3.811-6.37,5.008-10.213,14.024-7.324c3.431,1.099,5.546,0.577,8.423-1.43c6.466-4.508,13.372-8.384,20.117-12.487
	c4.467-2.718,7.949-6.979,12.027-9.662c10.394-6.838,18.705-15.41,26.396-24.892c4.406-5.432,9.906-9.558,16.32-12.367
	c8.775-3.839,18.24-6.562,26.229-11.627c8.787-5.57,17.527-9.923,27.876-11.461c4.773-0.709,9.207-3.444,13.949-4.675
	c9.549-2.48,19.225-4.47,28.809-6.829c12.396-3.052,24.752-6.279,37.133-9.403c1.377-0.346,2.789-0.571,4.199-0.75
	c5.896-0.754,11.953-0.865,17.664-2.333c10.758-2.763,21.725-3.122,32.658-4.11c6.736-0.61,13.764-0.634,20.066-2.718
	c4.984-1.647,9.807-1.549,14.574-1.047c-46.867-46.951-111.662-76-183.244-76c-142.996,0-258.92,115.922-258.92,258.919
	S207.604,608.199,350.6,608.199c94.251,0,176.732-50.367,222.019-125.648C549.943,482.551,527.266,482.551,504.592,482.551z"/>
</svg>
