<svg xmlns="http://www.w3.org/2000/svg" width="720" height="720" viewBox="0 0 720 720"><circle cx="352.8" cy="349.3" r="285.1"/><circle cx="352.8" cy="349.3" r="265.1" style="fill:#FFF;stroke-width:10;stroke:#FFF"/><path d="M504.6 482.6c-4.4-1.1-8.6-3.3-13.4-2.5 -2 0.3-4.2-0.4-6.2-0.6 -7.4-0.8-14.9-1.5-22.3-2.6 -6.9-1-13.8-2.5-20.7-4 -6.4-1.4-12.6-3.4-19-4.7 -10.9-2.2-21.8-4.1-32.7-5.8 -10.6-1.7-20.5-5.5-30-10.3 -3.3-1.7-6.4-3.8-9.6-5.7 -1.7-1-3.9-1.6-4.9-3 -2.3-3.2-5.5-3.5-8.8-3.9 -4.3-0.6-8.6-1-12.9-1.6 -11.5-1.8-19.9-10.2-30.3-14.3 -6.8-2.6-13.1-6.5-19.6-9.9 -5.4-2.8-10.9-5.6-16.2-8.6 -1.9-1-3.3-2.9-5.1-4 -4.4-2.4-8.9-4.7-13.5-6.8 -6.5-2.9-10.9-8-15.6-13.1 -10.7-11.6-22-22.6-33-33.9 -4.4-4.6-9.9-8.4-12.1-14.9 0-0.3 0-0.5 0-0.8 0.2-0.3 0.6-0.5 0.7-0.8 2.4-6.5 4.8-13 7.2-19.5 0.3-0.7 0.7-1.4 1.3-1.9 4.7-4 9.4-8.1 14.2-11.9 2.2-1.7 4.7-3.5 7.4-4.2 2.3-0.6 2.8-1.9 3.8-3.6 3.8-6.4 5-10.2 14-7.3 3.4 1.1 5.5 0.6 8.4-1.4 6.5-4.5 13.4-8.4 20.1-12.5 4.5-2.7 7.9-7 12-9.7 10.4-6.8 18.7-15.4 26.4-24.9 4.4-5.4 9.9-9.6 16.3-12.4 8.8-3.8 18.2-6.6 26.2-11.6 8.8-5.6 17.5-9.9 27.9-11.5 4.8-0.7 9.2-3.4 13.9-4.7 9.5-2.5 19.2-4.5 28.8-6.8 12.4-3.1 24.8-6.3 37.1-9.4 1.4-0.3 2.8-0.6 4.2-0.7 5.9-0.8 12-0.9 17.7-2.3 10.8-2.8 21.7-3.1 32.7-4.1 6.7-0.6 13.8-0.6 20.1-2.7 5-1.6 9.8-1.5 14.6-1 -46.9-47-111.7-76-183.2-76 -143 0-258.9 115.9-258.9 258.9S207.6 608.2 350.6 608.2c94.3 0 176.7-50.4 222-125.6C549.9 482.6 527.3 482.6 504.6 482.6z"/></svg>