<?xml version="1.0" encoding="utf-8"?>
<!-- Generator: Adobe Illustrator 16.0.0, SVG Export Plug-In . SVG Version: 6.00 Build 0)  -->
<!DOCTYPE svg PUBLIC "-//W3C//DTD SVG 1.1//EN" "http://www.w3.org/Graphics/SVG/1.1/DTD/svg11.dtd">
<svg version="1.1" id="Layer_1" xmlns="http://www.w3.org/2000/svg" xmlns:xlink="http://www.w3.org/1999/xlink" x="0px" y="0px"
	 width="720px" height="720px" viewBox="0 0 720 720" enable-background="new 0 0 720 720" xml:space="preserve">
<circle cx="352.75" cy="349.28" r="285.07"/>
<circle fill="#FFFFFF" stroke="#FFFFFF" stroke-width="14" stroke-miterlimit="10" cx="352.75" cy="349.28" r="265.07"/>
<path d="M585.791,429.434c-3.671-1.029-7.479-2.791-11.103-2.531c-11.553,0.832-23.021,3.143-34.576,3.61
	c-16.211,0.653-32.468,0.165-48.707,0.165c-12.924,0-25.85,0-37.824,0c4.356,1.807,9.825,4.076,15.295,6.348
	c-0.221,0.863-0.442,1.725-0.666,2.59c-3.125-0.203-6.299-0.848-9.373-0.528c-9.468,0.989-18.773,1.62-28.172-1.142
	c-15.112-4.438-30.406-8.249-45.584-12.463c-9.818-2.722-19.483-6.055-29.385-8.406c-5.699-1.353-11.736-1.256-17.613-1.867
	c-12.729-1.321-25.453-2.678-38.179-4.02c-1.675-0.177-3.372-0.252-5.021-0.569c-7.723-1.483-15.429-3.06-23.147-4.562
	c-12.991-2.527-26.253-4.108-38.923-7.75c-19.118-5.494-35.604-15.658-47.451-32.246c0-3.418,0-6.838,0-10.255
	c6.889-0.945,13.774-1.891,20.959-2.875c-3.418-2.076-6.513-5.309-9.979-5.77c-6.39-0.849-5.1-4.947-4.654-8.526
	c0.387-3.074,1.929-5.987,2.795-9.021c4.027-14.096,14.924-22.757,25.686-31.048c12.169-9.377,24.975-18.022,38.037-26.13
	c12.322-7.647,24.93-15.084,38.139-20.998c20.879-9.347,43.062-14.613,65.896-16.658c17.149-1.536,34.316-2.849,51.492-4.042
	c5.434-0.38,10.936,0.2,16.376-0.142c4.255-0.27,8.464-1.288,12.69-1.97c4.445,0,8.891,0,13.334,0
	c0.758,0.333,1.501,0.916,2.277,0.963c6.604,0.417,13.217,0.693,19.821,1.102c5.922,0.37,11.854,0.693,17.751,1.328
	c10.705,1.149,21.383,2.573,32.085,3.77c10.569,1.183,21.165,2.135,31.73,3.358c9.612,1.111,19.216,2.3,28.817,3.509
	C547.979,152.848,457.587,90.36,352.601,90.36c-142.996,0-258.92,115.922-258.92,258.919c0,142.997,115.924,258.919,258.92,258.919
	c113.686,0,210.253-73.275,245.066-175.17C593.714,431.803,589.767,430.546,585.791,429.434z"/>
</svg>
