<svg xmlns="http://www.w3.org/2000/svg" width="720" height="720" viewBox="0 0 720 720"><circle cx="352.8" cy="349.3" r="285.1"/><circle cx="352.8" cy="349.3" r="265.1" style="fill:#FFF;stroke-width:10;stroke:#FFF"/><path d="M585.8 429.4c-3.7-1-7.5-2.8-11.1-2.5 -11.6 0.8-23 3.1-34.6 3.6 -16.2 0.7-32.5 0.2-48.7 0.2 -12.9 0-25.8 0-37.8 0 4.4 1.8 9.8 4.1 15.3 6.3 -0.2 0.9-0.4 1.7-0.7 2.6 -3.1-0.2-6.3-0.8-9.4-0.5 -9.5 1-18.8 1.6-28.2-1.1 -15.1-4.4-30.4-8.2-45.6-12.5 -9.8-2.7-19.5-6.1-29.4-8.4 -5.7-1.4-11.7-1.3-17.6-1.9 -12.7-1.3-25.5-2.7-38.2-4 -1.7-0.2-3.4-0.3-5-0.6 -7.7-1.5-15.4-3.1-23.1-4.6 -13-2.5-26.3-4.1-38.9-7.7 -19.1-5.5-35.6-15.7-47.5-32.2 0-3.4 0-6.8 0-10.3 6.9-0.9 13.8-1.9 21-2.9 -3.4-2.1-6.5-5.3-10-5.8 -6.4-0.8-5.1-4.9-4.7-8.5 0.4-3.1 1.9-6 2.8-9 4-14.1 14.9-22.8 25.7-31 12.2-9.4 25-18 38-26.1 12.3-7.6 24.9-15.1 38.1-21 20.9-9.3 43.1-14.6 65.9-16.7 17.1-1.5 34.3-2.8 51.5-4 5.4-0.4 10.9 0.2 16.4-0.1 4.3-0.3 8.5-1.3 12.7-2 4.4 0 8.9 0 13.3 0 0.8 0.3 1.5 0.9 2.3 1 6.6 0.4 13.2 0.7 19.8 1.1 5.9 0.4 11.9 0.7 17.8 1.3 10.7 1.1 21.4 2.6 32.1 3.8 10.6 1.2 21.2 2.1 31.7 3.4 9.6 1.1 19.2 2.3 28.8 3.5C548 152.8 457.6 90.4 352.6 90.4c-143 0-258.9 115.9-258.9 258.9 0 143 115.9 258.9 258.9 258.9 113.7 0 210.3-73.3 245.1-175.2C593.7 431.8 589.8 430.5 585.8 429.4z"/></svg>