<?xml version="1.0" encoding="utf-8"?>
<!-- Generator: Adobe Illustrator 16.0.0, SVG Export Plug-In . SVG Version: 6.00 Build 0)  -->
<!DOCTYPE svg PUBLIC "-//W3C//DTD SVG 1.1//EN" "http://www.w3.org/Graphics/SVG/1.1/DTD/svg11.dtd">
<svg version="1.1" id="Layer_1" xmlns="http://www.w3.org/2000/svg" xmlns:xlink="http://www.w3.org/1999/xlink" x="0px" y="0px"
	 width="55px" height="49.881px" viewBox="39.996 36.273 55 49.881" enable-background="new 39.996 36.273 55 49.881"
	 xml:space="preserve">
<path d="M94.997,46.658c0,0.646-0.523,1.17-1.17,1.17h-52.66c-0.646,0-1.17-0.523-1.17-1.17v-9.215c0-0.646,0.524-1.17,1.17-1.17
	h52.66c0.646,0,1.17,0.524,1.17,1.17V46.658z"/>
<path d="M94.997,65.821c0,0.646-0.523,1.171-1.17,1.171h-52.66c-0.646,0-1.17-0.524-1.17-1.171v-9.215c0-0.646,0.524-1.17,1.17-1.17
	h52.66c0.646,0,1.17,0.524,1.17,1.17V65.821z"/>
<path d="M94.997,84.983c0,0.646-0.523,1.171-1.17,1.171h-52.66c-0.646,0-1.17-0.524-1.17-1.171v-9.215
	c0-0.646,0.524-1.171,1.17-1.171h52.66c0.646,0,1.17,0.524,1.17,1.171V84.983z"/>
</svg>
