<?xml version="1.0" encoding="utf-8"?>
<!-- Generator: Adobe Illustrator 16.0.0, SVG Export Plug-In . SVG Version: 6.00 Build 0)  -->
<!DOCTYPE svg PUBLIC "-//W3C//DTD SVG 1.1//EN" "http://www.w3.org/Graphics/SVG/1.1/DTD/svg11.dtd">
<svg version="1.1" id="Layer_1" xmlns="http://www.w3.org/2000/svg" xmlns:xlink="http://www.w3.org/1999/xlink" x="0px" y="0px"
	 width="134.993px" height="122.427px" viewBox="0 0 134.993 122.427" enable-background="new 0 0 134.993 122.427"
	 xml:space="preserve">
<path d="M134.993,25.49c0,1.586-1.286,2.873-2.872,2.873H2.873C1.286,28.363,0,27.077,0,25.49V2.872C0,1.286,1.286,0,2.873,0
	h129.248c1.586,0,2.872,1.286,2.872,2.872V25.49z"/>
<path d="M134.993,72.523c0,1.586-1.286,2.872-2.872,2.872H2.873C1.286,75.395,0,74.109,0,72.523V49.904
	c0-1.586,1.286-2.873,2.873-2.873h129.248c1.586,0,2.872,1.286,2.872,2.873V72.523z"/>
<path d="M134.993,119.554c0,1.587-1.286,2.873-2.872,2.873H2.873c-1.586,0-2.873-1.286-2.873-2.873V96.936
	c0-1.586,1.286-2.872,2.873-2.872h129.248c1.586,0,2.872,1.286,2.872,2.872V119.554z"/>
</svg>
