<?xml version="1.0" encoding="utf-8"?>
<!-- Generator: Adobe Illustrator 16.0.0, SVG Export Plug-In . SVG Version: 6.00 Build 0)  -->
<!DOCTYPE svg PUBLIC "-//W3C//DTD SVG 1.1//EN" "http://www.w3.org/Graphics/SVG/1.1/DTD/svg11.dtd">
<svg version="1.1" id="Layer_1" xmlns="http://www.w3.org/2000/svg" xmlns:xlink="http://www.w3.org/1999/xlink" x="0px" y="0px"
	 width="720px" height="720px" viewBox="0 0 720 720" enable-background="new 0 0 720 720" xml:space="preserve">
<circle cx="352.75" cy="349.28" r="285.07"/>
<circle fill="#FFFFFF" stroke="#FFFFFF" stroke-width="14" stroke-miterlimit="10" cx="352.75" cy="349.28" r="265.07"/>
<g>
	<path d="M500.526,558.19c-5.137,1.37-7.891-2.544-11.27-4.937c-4.133-2.922-7.867-6.498-12.234-8.972
		c-8.578-4.865-14.482-12.494-19.365-20.349c-10.139-16.305-18.904-33.46-28.422-50.162c-0.986-1.732-3.035-3.476-4.916-3.967
		c-4.961-1.289-10.248-1.398-15.143-2.86c-24.406-7.276-49.788-9.019-74.665-13.607c-5.988-1.103-11.986-2.649-17.65-4.842
		c-4.43-1.714-8.186-5.089-12.531-7.1c-6.039-2.792-12.346-5.013-18.543-7.462c-3.117-1.228-6.322-2.269-9.355-3.677
		c-2.084-0.97-3.83-2.669-5.92-3.624c-5.057-2.324-11.285-3.256-15.131-6.813c-8.777-8.126-19.42-12.428-29.695-17.751
		c-4.975-2.578-9.342-6.642-13.375-10.648c-4.26-4.225-7.715-9.252-11.693-13.779c-1.072-1.222-2.758-1.909-4.18-2.816
		c-5.562-3.527-11.129-7.047-16.695-10.57c0-1.958,0-3.911,0-5.868c2.309-5.448,6.424-6.608,12.047-5.997
		c5.605,0.606,11.334,0.292,16.996,0.048c2.049-0.086,4.062-1.126,6.953-1.986c-3.824-6.493-6.352-12.485-10.393-17.179
		c-4.189-4.87-10.084-8.231-14.736-12.763c-1.936-1.891-2.912-5.018-3.619-7.763c-0.219-0.855,2.164-3.476,2.879-3.304
		c7.125,1.709,12.439-0.788,16.969-6.149c0.91-1.075,2.734-1.366,4.113-2.062c3.711-1.872,7.432-3.715,11.1-5.663
		c3.891-2.068,7.652-4.384,11.594-6.346c14.959-7.448,29.963-14.81,44.963-22.177c13.434-6.603,26.826-13.288,40.338-19.724
		c23.037-10.986,46.981-18.387,72.86-18.024c18.174,0.258,36.326,0.291,54.078-4.684c6.799-1.91,14.938-1.538,20.387-5.252
		c12.23-8.336,26.213-9.311,39.717-12.175c11.447-2.426,23.203-3.457,34.854-4.841c7.479-0.885,15.004-1.359,22.51-2.021
		c-46.863-66.509-124.25-109.963-211.794-109.963c-142.996,0-258.92,115.922-258.92,258.919s115.924,258.919,258.92,258.919
		c56.179,0,108.175-17.9,150.61-48.298C501.571,559.154,500.894,558.091,500.526,558.19z"/>
	<path d="M576.618,470.922c-14.006,5.256-28.01,10.8-43.59,9.63c-5.725-0.435-11.586,0.459-17.328,1.175
		c-1.502,0.187-3.922,1.876-4.016,3.037c-0.596,7.118-0.725,14.285-0.85,21.438c-0.092,5.318,1.062,10.881-0.109,15.923
		c-2.674,11.526-5.633,22.903-4.861,34.888c0.004,0.065-0.004,0.131-0.006,0.197c31.189-23.184,56.975-53.223,75.146-87.884
		C579.54,469.846,578.077,470.374,576.618,470.922z"/>
</g>
</svg>
