<svg xmlns="http://www.w3.org/2000/svg" width="720" height="720" viewBox="0 0 720 720"><circle cx="352.8" cy="349.3" r="285.1"/><circle cx="352.8" cy="349.3" r="265.1" style="fill:#FFF;stroke-width:10;stroke:#FFF"/><path d="M500.5 558.2c-5.1 1.4-7.9-2.5-11.3-4.9 -4.1-2.9-7.9-6.5-12.2-9 -8.6-4.9-14.5-12.5-19.4-20.3 -10.1-16.3-18.9-33.5-28.4-50.2 -1-1.7-3-3.5-4.9-4 -5-1.3-10.2-1.4-15.1-2.9 -24.4-7.3-49.8-9-74.7-13.6 -6-1.1-12-2.6-17.6-4.8 -4.4-1.7-8.2-5.1-12.5-7.1 -6-2.8-12.3-5-18.5-7.5 -3.1-1.2-6.3-2.3-9.4-3.7 -2.1-1-3.8-2.7-5.9-3.6 -5.1-2.3-11.3-3.3-15.1-6.8 -8.8-8.1-19.4-12.4-29.7-17.8 -5-2.6-9.3-6.6-13.4-10.6 -4.3-4.2-7.7-9.3-11.7-13.8 -1.1-1.2-2.8-1.9-4.2-2.8 -5.6-3.5-11.1-7-16.7-10.6 0-2 0-3.9 0-5.9 2.3-5.4 6.4-6.6 12-6 5.6 0.6 11.3 0.3 17 0 2-0.1 4.1-1.1 7-2 -3.8-6.5-6.4-12.5-10.4-17.2 -4.2-4.9-10.1-8.2-14.7-12.8 -1.9-1.9-2.9-5-3.6-7.8 -0.2-0.9 2.2-3.5 2.9-3.3 7.1 1.7 12.4-0.8 17-6.1 0.9-1.1 2.7-1.4 4.1-2.1 3.7-1.9 7.4-3.7 11.1-5.7 3.9-2.1 7.7-4.4 11.6-6.3 15-7.4 30-14.8 45-22.2 13.4-6.6 26.8-13.3 40.3-19.7 23-11 47-18.4 72.9-18 18.2 0.3 36.3 0.3 54.1-4.7 6.8-1.9 14.9-1.5 20.4-5.3 12.2-8.3 26.2-9.3 39.7-12.2 11.4-2.4 23.2-3.5 34.9-4.8 7.5-0.9 15-1.4 22.5-2 -46.9-66.5-124.2-110-211.8-110 -143 0-258.9 115.9-258.9 258.9s115.9 258.9 258.9 258.9c56.2 0 108.2-17.9 150.6-48.3C501.6 559.2 500.9 558.1 500.5 558.2z"/><path d="M576.6 470.9c-14 5.3-28 10.8-43.6 9.6 -5.7-0.4-11.6 0.5-17.3 1.2 -1.5 0.2-3.9 1.9-4 3 -0.6 7.1-0.7 14.3-0.8 21.4 -0.1 5.3 1.1 10.9-0.1 15.9 -2.7 11.5-5.6 22.9-4.9 34.9 0 0.1 0 0.1 0 0.2 31.2-23.2 57-53.2 75.1-87.9C579.5 469.8 578.1 470.4 576.6 470.9z"/></svg>